%TF.GenerationSoftware,KiCad,Pcbnew,(6.0.0-0)*%
%TF.CreationDate,2022-02-22T22:18:15-05:00*%
%TF.ProjectId,LED_Controller_Without_Level_Shifter,4c45445f-436f-46e7-9472-6f6c6c65725f,1.0*%
%TF.SameCoordinates,Original*%
%TF.FileFunction,Soldermask,Top*%
%TF.FilePolarity,Negative*%
%FSLAX46Y46*%
G04 Gerber Fmt 4.6, Leading zero omitted, Abs format (unit mm)*
G04 Created by KiCad (PCBNEW (6.0.0-0)) date 2022-02-22 22:18:15*
%MOMM*%
%LPD*%
G01*
G04 APERTURE LIST*
%ADD10C,1.524000*%
%ADD11C,3.400000*%
%ADD12C,3.300000*%
%ADD13R,2.500000X2.500000*%
%ADD14C,2.500000*%
%ADD15R,1.700000X1.700000*%
%ADD16O,1.700000X1.700000*%
%ADD17C,1.400000*%
%ADD18O,1.400000X1.400000*%
%ADD19R,1.600000X1.600000*%
%ADD20O,1.600000X1.600000*%
%ADD21C,3.100000*%
%ADD22C,3.200000*%
G04 APERTURE END LIST*
D10*
%TO.C,RV5*%
X178452500Y-67935000D03*
X175912500Y-65325000D03*
X173372500Y-67935000D03*
%TD*%
%TO.C,U4*%
X165770000Y-123550000D03*
X168310000Y-123550000D03*
X165770000Y-118470000D03*
X168310000Y-118470000D03*
X165770000Y-115930000D03*
X168310000Y-115930000D03*
X165780000Y-113390000D03*
X168310000Y-113390000D03*
X165770000Y-110850000D03*
X168310000Y-110850000D03*
X165770000Y-108310000D03*
X168310000Y-108310000D03*
X165770000Y-105770000D03*
X168310000Y-105770000D03*
X165770000Y-103230000D03*
X168310000Y-103230000D03*
X165770000Y-100690000D03*
X168310000Y-100690000D03*
X165770000Y-98150000D03*
X168310000Y-98150000D03*
X165780000Y-95610000D03*
X168230000Y-95610000D03*
X165780000Y-93070000D03*
X168310000Y-93070000D03*
X165770000Y-90530000D03*
X168310000Y-90530000D03*
X165770000Y-87990000D03*
X168310000Y-131170000D03*
X168310000Y-128630000D03*
D11*
X140530000Y-118470000D03*
D12*
X146820000Y-81440000D03*
D10*
X168310000Y-87990000D03*
X165770000Y-85450000D03*
X168310000Y-85450000D03*
X165770000Y-82910000D03*
X168310000Y-82910000D03*
X165770000Y-80370000D03*
X168310000Y-80370000D03*
X132750000Y-98150000D03*
X135290000Y-98150000D03*
X132750000Y-95610000D03*
X135290000Y-95610000D03*
X132750000Y-93070000D03*
X135290000Y-93070000D03*
X132750000Y-90530000D03*
X135290000Y-90530000D03*
X132750000Y-87990000D03*
X135290000Y-87990000D03*
X132750000Y-85450000D03*
X135290000Y-85450000D03*
X132750000Y-82910000D03*
X135290000Y-82910000D03*
X132750000Y-80370000D03*
X135290000Y-80370000D03*
X137840000Y-80370000D03*
X137830000Y-82910000D03*
X140370000Y-80370000D03*
X140370000Y-82910000D03*
X142910000Y-80370000D03*
X142910000Y-82910000D03*
X165770000Y-128630000D03*
X165770000Y-131170000D03*
X165770000Y-126090000D03*
X168310000Y-126090000D03*
X165770000Y-121010000D03*
X168310000Y-121010000D03*
X132750000Y-118470000D03*
X135290000Y-118470000D03*
X132750000Y-115930000D03*
X135290000Y-115930000D03*
X132750000Y-113390000D03*
X135290000Y-113390000D03*
X132750000Y-110850000D03*
X135290000Y-110850000D03*
X132750000Y-108310000D03*
X135290000Y-108310000D03*
X132750000Y-105770000D03*
X135290000Y-105770000D03*
X132750000Y-103230000D03*
X135290000Y-103230000D03*
X132750000Y-100690000D03*
X135290000Y-100690000D03*
%TD*%
D13*
%TO.C,J1*%
X93790000Y-70645000D03*
D14*
X93790000Y-75725000D03*
%TD*%
D13*
%TO.C,J2*%
X110180000Y-68280000D03*
D14*
X105100000Y-68280000D03*
%TD*%
D13*
%TO.C,J3*%
X133045000Y-68280000D03*
D14*
X127965000Y-68280000D03*
%TD*%
D13*
%TO.C,J4*%
X121615000Y-68254000D03*
D14*
X116535000Y-68254000D03*
%TD*%
D15*
%TO.C,J5*%
X188930000Y-99250000D03*
D16*
X188930000Y-101790000D03*
X186390000Y-99250000D03*
X186390000Y-101790000D03*
X183850000Y-99250000D03*
X183850000Y-101790000D03*
X181310000Y-99250000D03*
X181310000Y-101790000D03*
%TD*%
D15*
%TO.C,J6*%
X189000000Y-108380000D03*
D16*
X189000000Y-110920000D03*
X186460000Y-108380000D03*
X186460000Y-110920000D03*
X183920000Y-108380000D03*
X183920000Y-110920000D03*
X181380000Y-108380000D03*
X181380000Y-110920000D03*
X178840000Y-108380000D03*
X178840000Y-110920000D03*
X176300000Y-108380000D03*
X176300000Y-110920000D03*
%TD*%
D15*
%TO.C,J7*%
X188976000Y-117334000D03*
D16*
X186436000Y-117334000D03*
X183896000Y-117334000D03*
X181356000Y-117334000D03*
X178816000Y-117334000D03*
%TD*%
D15*
%TO.C,J8*%
X188976000Y-130810000D03*
D16*
X186436000Y-130810000D03*
X183896000Y-130810000D03*
X181356000Y-130810000D03*
X178816000Y-130810000D03*
X176276000Y-130810000D03*
%TD*%
D15*
%TO.C,J9*%
X181320000Y-79145000D03*
D16*
X181320000Y-76605000D03*
X183860000Y-79145000D03*
X183860000Y-76605000D03*
X186400000Y-79145000D03*
X186400000Y-76605000D03*
X188940000Y-79145000D03*
X188940000Y-76605000D03*
%TD*%
D15*
%TO.C,J10*%
X188920000Y-84885000D03*
D16*
X188920000Y-87425000D03*
X186380000Y-84885000D03*
X186380000Y-87425000D03*
X183840000Y-84885000D03*
X183840000Y-87425000D03*
X181300000Y-84885000D03*
X181300000Y-87425000D03*
%TD*%
D15*
%TO.C,J11*%
X188951000Y-93751000D03*
D16*
X186411000Y-93751000D03*
X183871000Y-93751000D03*
X181331000Y-93751000D03*
X178791000Y-93751000D03*
X176251000Y-93751000D03*
%TD*%
D17*
%TO.C,R2*%
X155290000Y-102822000D03*
D18*
X150210000Y-102822000D03*
%TD*%
D17*
%TO.C,R3*%
X155290000Y-100534000D03*
D18*
X150210000Y-100534000D03*
%TD*%
D17*
%TO.C,R4*%
X150210000Y-98246000D03*
D18*
X155290000Y-98246000D03*
%TD*%
D17*
%TO.C,R5*%
X150210000Y-95958000D03*
D18*
X155290000Y-95958000D03*
%TD*%
D17*
%TO.C,R6*%
X150210000Y-93670000D03*
D18*
X155290000Y-93670000D03*
%TD*%
D19*
%TO.C,RN1*%
X163068000Y-76454000D03*
D20*
X160528000Y-76454000D03*
X157988000Y-76454000D03*
X155448000Y-76454000D03*
X152908000Y-76454000D03*
X150368000Y-76454000D03*
%TD*%
D10*
%TO.C,U1*%
X90780000Y-87130000D03*
X90780000Y-89670000D03*
X90780000Y-92210000D03*
X90780000Y-94750000D03*
X90780000Y-97290000D03*
D21*
X91610000Y-83600000D03*
X107838800Y-97361200D03*
%TD*%
D10*
%TO.C,U2*%
X105015400Y-130406600D03*
X120205400Y-127866600D03*
X102475400Y-130406600D03*
X117715400Y-127866600D03*
X107555400Y-130406600D03*
X105015400Y-105000600D03*
X112635400Y-105000600D03*
X110095400Y-105000600D03*
X112635400Y-127866600D03*
X115175400Y-127866600D03*
X107555400Y-105000600D03*
X107555400Y-127866600D03*
X115175400Y-105000600D03*
X110095400Y-127866600D03*
X112635400Y-130406600D03*
X110095400Y-102460600D03*
X107555400Y-102460600D03*
X112635400Y-102460600D03*
X115175400Y-102460600D03*
X105015400Y-127866600D03*
X120255400Y-130406600D03*
X120255400Y-102460600D03*
X102475400Y-127866600D03*
X102475400Y-105000600D03*
X99935400Y-127866600D03*
X97395400Y-127866600D03*
X110095400Y-130406600D03*
X99935400Y-130406600D03*
X97395400Y-130406600D03*
X120255400Y-105000600D03*
X117715400Y-105000600D03*
X99935400Y-105000600D03*
X97395400Y-105000600D03*
X117715400Y-102460600D03*
X105015400Y-102460600D03*
X102475400Y-102460600D03*
X99935400Y-102460600D03*
X97395400Y-102460600D03*
X115175400Y-130406600D03*
X117715400Y-130406600D03*
%TD*%
D17*
%TO.C,R1*%
X155290000Y-105110000D03*
D18*
X150210000Y-105110000D03*
%TD*%
D10*
%TO.C,SW1*%
X125476000Y-89091000D03*
X122936000Y-89091000D03*
X120396000Y-89091000D03*
X117856000Y-89091000D03*
X115316000Y-89091000D03*
X115316000Y-81089000D03*
X117856000Y-81089000D03*
X120396000Y-81089000D03*
X122936000Y-81089000D03*
X125476000Y-81089000D03*
%TD*%
%TO.C,SW2*%
X188820000Y-71020000D03*
X188820000Y-66520000D03*
X195320000Y-71020000D03*
X195320000Y-66520000D03*
%TD*%
%TO.C,RV1*%
X156140000Y-67935000D03*
X153600000Y-65325000D03*
X151060000Y-67935000D03*
%TD*%
%TO.C,RV2*%
X171015000Y-67935000D03*
X168475000Y-65325000D03*
X165935000Y-67935000D03*
%TD*%
%TO.C,RV3*%
X185890000Y-67935000D03*
X183350000Y-65325000D03*
X180810000Y-67935000D03*
%TD*%
%TO.C,RV4*%
X163577500Y-67935000D03*
X161037500Y-65325000D03*
X158497500Y-67935000D03*
%TD*%
D15*
%TO.C,J13*%
X118545000Y-96315000D03*
D16*
X118545000Y-93775000D03*
X121085000Y-96315000D03*
X121085000Y-93775000D03*
%TD*%
D15*
%TO.C,J13*%
X188975000Y-123340000D03*
D16*
X186435000Y-123340000D03*
X183895000Y-123340000D03*
%TD*%
D22*
%TO.C,REF\u002A\u002A*%
X196480000Y-136460000D03*
%TD*%
%TO.C,REF\u002A\u002A*%
X89662000Y-63500000D03*
%TD*%
D17*
%TO.C,R7*%
X106172000Y-76962000D03*
D18*
X111252000Y-76962000D03*
%TD*%
D22*
%TO.C,REF\u002A\u002A*%
X89580000Y-136520000D03*
%TD*%
D17*
%TO.C,R8*%
X126238000Y-77140000D03*
D18*
X121158000Y-77140000D03*
%TD*%
D22*
%TO.C,REF\u002A\u002A*%
X196510000Y-63490000D03*
%TD*%
D13*
%TO.C,J12*%
X145625000Y-68170000D03*
D14*
X140545000Y-68170000D03*
%TD*%
M02*
