%TF.GenerationSoftware,KiCad,Pcbnew,(6.0.0-0)*%
%TF.CreationDate,2022-02-24T11:08:07-05:00*%
%TF.ProjectId,LED_Controller_Without_Level_Shifter,4c45445f-436f-46e7-9472-6f6c6c65725f,1.0*%
%TF.SameCoordinates,Original*%
%TF.FileFunction,Copper,L3,Inr*%
%TF.FilePolarity,Positive*%
%FSLAX46Y46*%
G04 Gerber Fmt 4.6, Leading zero omitted, Abs format (unit mm)*
G04 Created by KiCad (PCBNEW (6.0.0-0)) date 2022-02-24 11:08:07*
%MOMM*%
%LPD*%
G01*
G04 APERTURE LIST*
%TA.AperFunction,ComponentPad*%
%ADD10R,2.500000X2.500000*%
%TD*%
%TA.AperFunction,ComponentPad*%
%ADD11C,2.500000*%
%TD*%
%TA.AperFunction,ComponentPad*%
%ADD12R,1.700000X1.700000*%
%TD*%
%TA.AperFunction,ComponentPad*%
%ADD13O,1.700000X1.700000*%
%TD*%
%TA.AperFunction,ComponentPad*%
%ADD14C,1.400000*%
%TD*%
%TA.AperFunction,ComponentPad*%
%ADD15O,1.400000X1.400000*%
%TD*%
%TA.AperFunction,ComponentPad*%
%ADD16R,1.600000X1.600000*%
%TD*%
%TA.AperFunction,ComponentPad*%
%ADD17O,1.600000X1.600000*%
%TD*%
%TA.AperFunction,ComponentPad*%
%ADD18C,1.524000*%
%TD*%
%TA.AperFunction,ComponentPad*%
%ADD19C,2.600000*%
%TD*%
%TA.AperFunction,Conductor*%
%ADD20C,0.250000*%
%TD*%
G04 APERTURE END LIST*
D10*
%TO.N,GND*%
%TO.C,J1*%
X93790000Y-70645000D03*
D11*
%TO.N,+12V*%
X93790000Y-75725000D03*
%TD*%
D10*
%TO.N,GND*%
%TO.C,J2*%
X110180000Y-68280000D03*
D11*
%TO.N,+5V*%
X105100000Y-68280000D03*
%TD*%
D10*
%TO.N,GND*%
%TO.C,J3*%
X133045000Y-68280000D03*
D11*
%TO.N,+5V*%
X127965000Y-68280000D03*
%TD*%
D10*
%TO.N,GND*%
%TO.C,J4*%
X121615000Y-68254000D03*
D11*
%TO.N,+5V*%
X116535000Y-68254000D03*
%TD*%
D12*
%TO.N,GND*%
%TO.C,J5*%
X188930000Y-99250000D03*
D13*
X188930000Y-101790000D03*
%TO.N,+5V*%
X186390000Y-99250000D03*
X186390000Y-101790000D03*
%TO.N,LDP_CLOCK*%
X183850000Y-99250000D03*
%TO.N,MAINT_CLOCK*%
X183850000Y-101790000D03*
%TO.N,/H-R1_LD*%
X181310000Y-99250000D03*
%TO.N,/H-R2-MD*%
X181310000Y-101790000D03*
%TD*%
D12*
%TO.N,GND*%
%TO.C,J6*%
X189000000Y-108380000D03*
D13*
X189000000Y-110920000D03*
%TO.N,+5V*%
X186460000Y-108380000D03*
X186460000Y-110920000D03*
%TO.N,CS1_CLOCK*%
X183920000Y-108380000D03*
%TO.N,VU1_CLOCK*%
X183920000Y-110920000D03*
%TO.N,/H-R3_C1D*%
X181380000Y-108380000D03*
%TO.N,/H-R4_V1D*%
X181380000Y-110920000D03*
%TO.N,CS2_CLOCK*%
X178840000Y-108380000D03*
%TO.N,VU2_CLOCK*%
X178840000Y-110920000D03*
%TO.N,/H-R5_C2D*%
X176300000Y-108380000D03*
%TO.N,/H-R6_V2D*%
X176300000Y-110920000D03*
%TD*%
D12*
%TO.N,GND*%
%TO.C,J7*%
X188976000Y-117334000D03*
D13*
%TO.N,+5V*%
X186436000Y-117334000D03*
%TO.N,DP_LOAD*%
X183896000Y-117334000D03*
%TO.N,DP_CLOCK*%
X181356000Y-117334000D03*
%TO.N,DP_DATA_IN*%
X178816000Y-117334000D03*
%TD*%
D12*
%TO.N,GND*%
%TO.C,J8*%
X188976000Y-130810000D03*
D13*
%TO.N,+5V*%
X186436000Y-130810000D03*
%TO.N,VU_STROBE*%
X183896000Y-130810000D03*
%TO.N,VU_RESET*%
X181356000Y-130810000D03*
%TO.N,SPECTRUM_LEFT*%
X178816000Y-130810000D03*
%TO.N,SPECTRUM_RIGHT*%
X176276000Y-130810000D03*
%TD*%
D12*
%TO.N,+5V*%
%TO.C,J9*%
X181320000Y-79145000D03*
D13*
X181320000Y-76605000D03*
%TO.N,GND*%
X183860000Y-79145000D03*
X183860000Y-76605000D03*
%TO.N,SCL*%
X186400000Y-79145000D03*
X186400000Y-76605000D03*
%TO.N,SDA*%
X188940000Y-79145000D03*
X188940000Y-76605000D03*
%TD*%
D12*
%TO.N,GND*%
%TO.C,J10*%
X188920000Y-84885000D03*
D13*
X188920000Y-87425000D03*
%TO.N,+5V*%
X186380000Y-84885000D03*
X186380000Y-87425000D03*
%TO.N,TX1*%
X183840000Y-84885000D03*
%TO.N,TX0*%
X183840000Y-87425000D03*
%TO.N,RX1*%
X181300000Y-84885000D03*
%TO.N,RX0*%
X181300000Y-87425000D03*
%TD*%
D12*
%TO.N,GND*%
%TO.C,J11*%
X188951000Y-93751000D03*
D13*
%TO.N,OE*%
X186411000Y-93751000D03*
%TO.N,SCL*%
X183871000Y-93751000D03*
%TO.N,SDA*%
X181331000Y-93751000D03*
%TO.N,+5V*%
X178791000Y-93751000D03*
X176251000Y-93751000D03*
%TD*%
D14*
%TO.N,/H-R2-MD*%
%TO.C,R2*%
X155290000Y-102822000D03*
D15*
%TO.N,MAINT_DATA*%
X150210000Y-102822000D03*
%TD*%
D14*
%TO.N,/H-R3_C1D*%
%TO.C,R3*%
X155290000Y-100534000D03*
D15*
%TO.N,CS1_DATA*%
X150210000Y-100534000D03*
%TD*%
D14*
%TO.N,CS2_DATA*%
%TO.C,R4*%
X150210000Y-98246000D03*
D15*
%TO.N,/H-R5_C2D*%
X155290000Y-98246000D03*
%TD*%
D14*
%TO.N,VU1_DATA*%
%TO.C,R5*%
X150210000Y-95958000D03*
D15*
%TO.N,/H-R4_V1D*%
X155290000Y-95958000D03*
%TD*%
D14*
%TO.N,VU2_DATA*%
%TO.C,R6*%
X150210000Y-93670000D03*
D15*
%TO.N,/H-R6_V2D*%
X155290000Y-93670000D03*
%TD*%
D16*
%TO.N,GND*%
%TO.C,RN1*%
X163068000Y-76454000D03*
D17*
%TO.N,JUMPER1*%
X160528000Y-76454000D03*
%TO.N,JUMPER2*%
X157988000Y-76454000D03*
%TO.N,JUMPER3*%
X155448000Y-76454000D03*
%TO.N,JUMPER4*%
X152908000Y-76454000D03*
%TO.N,JUMPER5*%
X150368000Y-76454000D03*
%TD*%
D18*
%TO.N,unconnected-(U1-Pad0)*%
%TO.C,U1*%
X90780000Y-87130000D03*
%TO.N,+12V*%
X90780000Y-89670000D03*
%TO.N,GND*%
X90780000Y-92210000D03*
X90780000Y-94750000D03*
%TO.N,+5V*%
X90780000Y-97290000D03*
D19*
%TO.N,N/C*%
X107838800Y-97361200D03*
X91610000Y-83600000D03*
%TD*%
D18*
%TO.N,unconnected-(U2-Pad0)*%
%TO.C,U2*%
X105015400Y-130406600D03*
%TO.N,unconnected-(U2-Pad1)*%
X120205400Y-127866600D03*
%TO.N,unconnected-(U2-Pad2)*%
X102475400Y-130406600D03*
%TO.N,unconnected-(U2-Pad3)*%
X117715400Y-127866600D03*
%TO.N,unconnected-(U2-Pad4)*%
X107555400Y-130406600D03*
%TO.N,unconnected-(U2-Pad5)*%
X105015400Y-105000600D03*
%TO.N,unconnected-(U2-Pad18)*%
X112635400Y-105000600D03*
%TO.N,unconnected-(U2-Pad19)*%
X110095400Y-105000600D03*
%TO.N,unconnected-(U2-Pad21)*%
X112635400Y-127866600D03*
%TO.N,unconnected-(U2-Pad22)*%
X115175400Y-127866600D03*
%TO.N,unconnected-(U2-Pad23)*%
X107555400Y-105000600D03*
%TO.N,unconnected-(U2-Pad25)*%
X107555400Y-127866600D03*
%TO.N,unconnected-(U2-Pad26)*%
X115175400Y-105000600D03*
%TO.N,unconnected-(U2-Pad27)*%
X110095400Y-127866600D03*
%TO.N,unconnected-(U2-Pad32)*%
X112635400Y-130406600D03*
%TO.N,unconnected-(U2-Pad33)*%
X110095400Y-102460600D03*
%TO.N,unconnected-(U2-Pad34)*%
X107555400Y-102460600D03*
%TO.N,unconnected-(U2-Pad35)*%
X112635400Y-102460600D03*
%TO.N,unconnected-(U2-Pad39)*%
X115175400Y-102460600D03*
%TO.N,GND*%
X105015400Y-127866600D03*
X120255400Y-130406600D03*
X120255400Y-102460600D03*
%TO.N,+5V*%
X102475400Y-127866600D03*
%TO.N,3.3V*%
X102475400Y-105000600D03*
%TO.N,unconnected-(U2-Pad80)*%
X99935400Y-127866600D03*
%TO.N,unconnected-(U2-Pad81)*%
X97395400Y-127866600D03*
%TO.N,unconnected-(U2-Pad82)*%
X110095400Y-130406600D03*
%TO.N,unconnected-(U2-Pad83)*%
X99935400Y-130406600D03*
%TO.N,unconnected-(U2-Pad84)*%
X97395400Y-130406600D03*
%TO.N,unconnected-(U2-Pad85)*%
X120255400Y-105000600D03*
%TO.N,unconnected-(U2-Pad86)*%
X117715400Y-105000600D03*
%TO.N,unconnected-(U2-Pad87)*%
X99935400Y-105000600D03*
%TO.N,unconnected-(U2-Pad88)*%
X97395400Y-105000600D03*
%TO.N,unconnected-(U2-Pad89)*%
X117715400Y-102460600D03*
%TO.N,unconnected-(U2-Pad90)*%
X105015400Y-102460600D03*
%TO.N,unconnected-(U2-Pad91)*%
X102475400Y-102460600D03*
%TO.N,unconnected-(U2-Pad92)*%
X99935400Y-102460600D03*
%TO.N,unconnected-(U2-Pad93)*%
X97395400Y-102460600D03*
%TO.N,ESP_LOGIC_RX*%
X115175400Y-130406600D03*
%TO.N,ESP_LOGIC_TX*%
X117715400Y-130406600D03*
%TD*%
D14*
%TO.N,/H-R1_LD*%
%TO.C,R1*%
X155290000Y-105110000D03*
D15*
%TO.N,LDP_DATA*%
X150210000Y-105110000D03*
%TD*%
D18*
%TO.N,JUMPER5*%
%TO.C,SW1*%
X125476000Y-89091000D03*
%TO.N,JUMPER4*%
X122936000Y-89091000D03*
%TO.N,JUMPER3*%
X120396000Y-89091000D03*
%TO.N,JUMPER2*%
X117856000Y-89091000D03*
%TO.N,JUMPER1*%
X115316000Y-89091000D03*
%TO.N,+5V*%
X115316000Y-81089000D03*
X117856000Y-81089000D03*
X120396000Y-81089000D03*
X122936000Y-81089000D03*
X125476000Y-81089000D03*
%TD*%
%TO.N,GND*%
%TO.C,SW2*%
X188820000Y-71020000D03*
%TO.N,RESET*%
X188820000Y-66520000D03*
%TO.N,GND*%
X195320000Y-71020000D03*
%TO.N,RESET*%
X195320000Y-66520000D03*
%TD*%
%TO.N,TX0*%
%TO.C,U4*%
X165770000Y-118470000D03*
%TO.N,RX0*%
X168310000Y-118470000D03*
%TO.N,OE*%
X165770000Y-115930000D03*
%TO.N,DP_DATA_IN*%
X168310000Y-115930000D03*
%TO.N,DP_CLOCK*%
X165780000Y-113390000D03*
%TO.N,DP_LOAD*%
X168310000Y-113390000D03*
%TO.N,unconnected-(U4-Pad6)*%
X165770000Y-110850000D03*
%TO.N,unconnected-(U4-Pad7)*%
X168310000Y-110850000D03*
%TO.N,unconnected-(U4-Pad8)*%
X165770000Y-108310000D03*
%TO.N,unconnected-(U4-Pad9)*%
X168310000Y-108310000D03*
%TO.N,unconnected-(U4-Pad10)*%
X165770000Y-105770000D03*
%TO.N,unconnected-(U4-Pad11)*%
X168310000Y-105770000D03*
%TO.N,VU_STROBE*%
X165770000Y-103230000D03*
%TO.N,VU_RESET*%
X168310000Y-103230000D03*
%TO.N,unconnected-(U4-Pad14)*%
X165770000Y-100690000D03*
%TO.N,unconnected-(U4-Pad15)*%
X168310000Y-100690000D03*
%TO.N,LOGIC_2560_RX*%
X165770000Y-98150000D03*
%TO.N,LOGIC_2560_TX*%
X168310000Y-98150000D03*
%TO.N,TX1*%
X165780000Y-95610000D03*
%TO.N,RX1*%
X168230000Y-95610000D03*
%TO.N,SDA*%
X165780000Y-93070000D03*
%TO.N,SCL*%
X168310000Y-93070000D03*
%TO.N,unconnected-(U4-Pad22)*%
X165770000Y-90530000D03*
%TO.N,unconnected-(U4-Pad23)*%
X168310000Y-90530000D03*
%TO.N,unconnected-(U4-Pad24)*%
X165770000Y-87990000D03*
%TO.N,unconnected-(U4-Pad25)*%
X168310000Y-87990000D03*
%TO.N,unconnected-(U4-Pad26)*%
X165770000Y-85450000D03*
%TO.N,unconnected-(U4-Pad27)*%
X168310000Y-85450000D03*
%TO.N,unconnected-(U4-Pad28)*%
X165770000Y-82910000D03*
%TO.N,unconnected-(U4-Pad29)*%
X168310000Y-82910000D03*
%TO.N,MAINT_DATA*%
X165770000Y-80370000D03*
%TO.N,unconnected-(U4-Pad31)*%
X168310000Y-80370000D03*
%TO.N,MAINT_CLOCK*%
X132750000Y-98150000D03*
%TO.N,unconnected-(U4-Pad33)*%
X135290000Y-98150000D03*
%TO.N,LDP_DATA*%
X132750000Y-95610000D03*
%TO.N,unconnected-(U4-Pad35)*%
X135290000Y-95610000D03*
%TO.N,LDP_CLOCK*%
X132750000Y-93070000D03*
%TO.N,unconnected-(U4-Pad37)*%
X135290000Y-93070000D03*
%TO.N,CS1_DATA*%
X132750000Y-90530000D03*
%TO.N,unconnected-(U4-Pad39)*%
X135290000Y-90530000D03*
%TO.N,CS1_CLOCK*%
X132750000Y-87990000D03*
%TO.N,unconnected-(U4-Pad41)*%
X135290000Y-87990000D03*
%TO.N,CS2_DATA*%
X132750000Y-85450000D03*
%TO.N,unconnected-(U4-Pad43)*%
X135290000Y-85450000D03*
%TO.N,CS2_CLOCK*%
X132750000Y-82910000D03*
%TO.N,JUMPER5*%
X135290000Y-82910000D03*
%TO.N,VU1_DATA*%
X132750000Y-80370000D03*
%TO.N,JUMPER4*%
X135290000Y-80370000D03*
%TO.N,VU1_CLOCK*%
X137840000Y-80370000D03*
%TO.N,JUMPER3*%
X137830000Y-82910000D03*
%TO.N,VU2_DATA*%
X140370000Y-80370000D03*
%TO.N,JUMPER2*%
X140370000Y-82910000D03*
%TO.N,VU2_CLOCK*%
X142910000Y-80370000D03*
%TO.N,JUMPER1*%
X142910000Y-82910000D03*
%TO.N,GND*%
X168310000Y-128630000D03*
X165770000Y-128630000D03*
%TO.N,+5V*%
X165770000Y-131170000D03*
X168310000Y-131170000D03*
%TO.N,unconnected-(U4-Pad72)*%
X165770000Y-126090000D03*
%TO.N,unconnected-(U4-Pad73)*%
X168310000Y-126090000D03*
%TO.N,unconnected-(U4-Pad74)*%
X168310000Y-123550000D03*
%TO.N,unconnected-(U4-Pad75)*%
X165770000Y-123550000D03*
D19*
%TO.N,N/C*%
X146820000Y-81440000D03*
X140530000Y-118470000D03*
D18*
%TO.N,unconnected-(U4-Pad104)*%
X165770000Y-121010000D03*
%TO.N,RESET*%
X168310000Y-121010000D03*
%TO.N,SPECTRUM_LEFT*%
X132750000Y-118470000D03*
%TO.N,SPECTRUM_RIGHT*%
X135290000Y-118470000D03*
%TO.N,TRIM1*%
X132750000Y-115930000D03*
%TO.N,TRIM2*%
X135290000Y-115930000D03*
%TO.N,TRIM3*%
X132750000Y-113390000D03*
%TO.N,TRIM4*%
X135290000Y-113390000D03*
%TO.N,TRIM5*%
X132750000Y-110850000D03*
%TO.N,BATTERY_LEVEL*%
X135290000Y-110850000D03*
%TO.N,EXT_MIC*%
X132750000Y-108310000D03*
%TO.N,unconnected-(U4-Pad209)*%
X135290000Y-108310000D03*
%TO.N,unconnected-(U4-Pad210)*%
X132750000Y-105770000D03*
%TO.N,unconnected-(U4-Pad211)*%
X135290000Y-105770000D03*
%TO.N,unconnected-(U4-Pad212)*%
X132750000Y-103230000D03*
%TO.N,unconnected-(U4-Pad213)*%
X135290000Y-103230000D03*
%TO.N,unconnected-(U4-Pad214)*%
X132750000Y-100690000D03*
%TO.N,unconnected-(U4-Pad215)*%
X135290000Y-100690000D03*
%TD*%
%TO.N,GND*%
%TO.C,RV1*%
X156140000Y-67935000D03*
%TO.N,TRIM1*%
X153600000Y-65325000D03*
%TO.N,+5V*%
X151060000Y-67935000D03*
%TD*%
%TO.N,GND*%
%TO.C,RV2*%
X171015000Y-67935000D03*
%TO.N,TRIM3*%
X168475000Y-65325000D03*
%TO.N,+5V*%
X165935000Y-67935000D03*
%TD*%
%TO.N,GND*%
%TO.C,RV3*%
X185890000Y-67935000D03*
%TO.N,TRIM5*%
X183350000Y-65325000D03*
%TO.N,+5V*%
X180810000Y-67935000D03*
%TD*%
%TO.N,GND*%
%TO.C,RV4*%
X163577500Y-67935000D03*
%TO.N,TRIM2*%
X161037500Y-65325000D03*
%TO.N,+5V*%
X158497500Y-67935000D03*
%TD*%
%TO.N,GND*%
%TO.C,RV5*%
X178452500Y-67935000D03*
%TO.N,TRIM4*%
X175912500Y-65325000D03*
%TO.N,+5V*%
X173372500Y-67935000D03*
%TD*%
D12*
%TO.N,ESP_LOGIC_RX*%
%TO.C,J13*%
X118545000Y-96315000D03*
D13*
%TO.N,ESP_LOGIC_TX*%
X118545000Y-93775000D03*
%TO.N,LOGIC_2560_RX*%
X121085000Y-96315000D03*
%TO.N,LOGIC_2560_TX*%
X121085000Y-93775000D03*
%TD*%
D12*
%TO.N,GND*%
%TO.C,J13*%
X188975000Y-123340000D03*
D13*
%TO.N,+5V*%
X186435000Y-123340000D03*
%TO.N,EXT_MIC*%
X183895000Y-123340000D03*
%TD*%
D14*
%TO.N,BATTERY_LEVEL*%
%TO.C,R7*%
X106172000Y-76962000D03*
D15*
%TO.N,POS*%
X111252000Y-76962000D03*
%TD*%
D14*
%TO.N,NEG*%
%TO.C,R8*%
X126238000Y-77140000D03*
D15*
%TO.N,BATTERY_LEVEL*%
X121158000Y-77140000D03*
%TD*%
D10*
%TO.N,POS*%
%TO.C,J12*%
X145625000Y-68170000D03*
D11*
%TO.N,NEG*%
X140545000Y-68170000D03*
%TD*%
D20*
%TO.N,MAINT_CLOCK*%
X145610000Y-112110000D02*
X138550000Y-105050000D01*
X169750000Y-112110000D02*
X145610000Y-112110000D01*
X194050000Y-97740000D02*
X194050000Y-112820000D01*
X138550000Y-105050000D02*
X138550000Y-100370000D01*
X179730000Y-102410000D02*
X179730000Y-97330000D01*
X179730000Y-97330000D02*
X180710000Y-96350000D01*
X134130000Y-99530000D02*
X132750000Y-98150000D01*
X183850000Y-101790000D02*
X182380000Y-103260000D01*
X192990000Y-113880000D02*
X171520000Y-113880000D01*
X137710000Y-99530000D02*
X134130000Y-99530000D01*
X192660000Y-96350000D02*
X194050000Y-97740000D01*
X138550000Y-100370000D02*
X137710000Y-99530000D01*
X194050000Y-112820000D02*
X192990000Y-113880000D01*
X171520000Y-113880000D02*
X169750000Y-112110000D01*
X182380000Y-103260000D02*
X180580000Y-103260000D01*
X180580000Y-103260000D02*
X179730000Y-102410000D01*
X180710000Y-96350000D02*
X192660000Y-96350000D01*
%TO.N,LDP_CLOCK*%
X183850000Y-99250000D02*
X186000000Y-97100000D01*
X134030000Y-96100000D02*
X134030000Y-94350000D01*
X139030000Y-100020000D02*
X135850000Y-96840000D01*
X169720000Y-109610000D02*
X143870000Y-109610000D01*
X134030000Y-94350000D02*
X132750000Y-93070000D01*
X193350000Y-112580000D02*
X192740000Y-113190000D01*
X173300000Y-113190000D02*
X169720000Y-109610000D01*
X134770000Y-96840000D02*
X134030000Y-96100000D01*
X139030000Y-104770000D02*
X139030000Y-100020000D01*
X143870000Y-109610000D02*
X139030000Y-104770000D01*
X192740000Y-113190000D02*
X173300000Y-113190000D01*
X135850000Y-96840000D02*
X134770000Y-96840000D01*
X193350000Y-97880000D02*
X193350000Y-112580000D01*
X192570000Y-97100000D02*
X193350000Y-97880000D01*
X186000000Y-97100000D02*
X192570000Y-97100000D01*
%TO.N,VU1_CLOCK*%
X148710000Y-78980000D02*
X149640000Y-79910000D01*
X139230000Y-78980000D02*
X148710000Y-78980000D01*
X149640000Y-82790000D02*
X153480000Y-86630000D01*
X170700000Y-86630000D02*
X173760000Y-89690000D01*
X149640000Y-79910000D02*
X149640000Y-82790000D01*
X182630000Y-107830000D02*
X182630000Y-109630000D01*
X173760000Y-89690000D02*
X173760000Y-98960000D01*
X182630000Y-109630000D02*
X183920000Y-110920000D01*
X137840000Y-80370000D02*
X139230000Y-78980000D01*
X153480000Y-86630000D02*
X170700000Y-86630000D01*
X173760000Y-98960000D02*
X182630000Y-107830000D01*
%TO.N,VU2_CLOCK*%
X172990000Y-99090000D02*
X180120000Y-106220000D01*
X142910000Y-80370000D02*
X142910000Y-80740000D01*
X151450000Y-89280000D02*
X172170000Y-89280000D01*
X172170000Y-89280000D02*
X172990000Y-90100000D01*
X180120000Y-106220000D02*
X180120000Y-109640000D01*
X142910000Y-80740000D02*
X151450000Y-89280000D01*
X180120000Y-109640000D02*
X178840000Y-110920000D01*
X172990000Y-90100000D02*
X172990000Y-99090000D01*
%TO.N,CS2_CLOCK*%
X134636462Y-84160000D02*
X144760000Y-84160000D01*
X171260000Y-94380000D02*
X172220000Y-95340000D01*
X162510000Y-94380000D02*
X171260000Y-94380000D01*
X153216511Y-92616511D02*
X160746511Y-92616511D01*
X144760000Y-84160000D02*
X153216511Y-92616511D01*
X172220000Y-95340000D02*
X172220000Y-99150000D01*
X160746511Y-92616511D02*
X162510000Y-94380000D01*
X132750000Y-82910000D02*
X133386462Y-82910000D01*
X133386462Y-82910000D02*
X134636462Y-84160000D01*
X172220000Y-99150000D02*
X178840000Y-105770000D01*
X178840000Y-105770000D02*
X178840000Y-108380000D01*
%TO.N,CS1_CLOCK*%
X156300000Y-78340000D02*
X162260000Y-84300000D01*
X130840000Y-79840000D02*
X132340000Y-78340000D01*
X132340000Y-78340000D02*
X156300000Y-78340000D01*
X174470000Y-89610000D02*
X174470000Y-98930000D01*
X130840000Y-86080000D02*
X130840000Y-79840000D01*
X162260000Y-84300000D02*
X169160000Y-84300000D01*
X132750000Y-87990000D02*
X130840000Y-86080000D01*
X169160000Y-84300000D02*
X174470000Y-89610000D01*
X174470000Y-98930000D02*
X183920000Y-108380000D01*
%TD*%
M02*
