%TF.GenerationSoftware,KiCad,Pcbnew,(6.0.0-0)*%
%TF.CreationDate,2022-02-03T16:38:38-05:00*%
%TF.ProjectId,LED_Controller_Without_Level_Shifter,4c45445f-436f-46e7-9472-6f6c6c65725f,1.0*%
%TF.SameCoordinates,Original*%
%TF.FileFunction,Copper,L2,Inr*%
%TF.FilePolarity,Positive*%
%FSLAX46Y46*%
G04 Gerber Fmt 4.6, Leading zero omitted, Abs format (unit mm)*
G04 Created by KiCad (PCBNEW (6.0.0-0)) date 2022-02-03 16:38:38*
%MOMM*%
%LPD*%
G01*
G04 APERTURE LIST*
%TA.AperFunction,ComponentPad*%
%ADD10R,2.500000X2.500000*%
%TD*%
%TA.AperFunction,ComponentPad*%
%ADD11C,2.500000*%
%TD*%
%TA.AperFunction,ComponentPad*%
%ADD12R,1.700000X1.700000*%
%TD*%
%TA.AperFunction,ComponentPad*%
%ADD13O,1.700000X1.700000*%
%TD*%
%TA.AperFunction,ComponentPad*%
%ADD14C,1.400000*%
%TD*%
%TA.AperFunction,ComponentPad*%
%ADD15O,1.400000X1.400000*%
%TD*%
%TA.AperFunction,ComponentPad*%
%ADD16R,1.600000X1.600000*%
%TD*%
%TA.AperFunction,ComponentPad*%
%ADD17O,1.600000X1.600000*%
%TD*%
%TA.AperFunction,ComponentPad*%
%ADD18C,1.524000*%
%TD*%
%TA.AperFunction,ComponentPad*%
%ADD19C,3.100000*%
%TD*%
%TA.AperFunction,ComponentPad*%
%ADD20C,5.000000*%
%TD*%
%TA.AperFunction,Conductor*%
%ADD21C,0.250000*%
%TD*%
G04 APERTURE END LIST*
D10*
%TO.N,GND*%
%TO.C,J1*%
X93790000Y-70645000D03*
D11*
%TO.N,+12V*%
X93790000Y-75725000D03*
%TD*%
D10*
%TO.N,GND*%
%TO.C,J2*%
X110180000Y-68280000D03*
D11*
%TO.N,+5V*%
X105100000Y-68280000D03*
%TD*%
D10*
%TO.N,GND*%
%TO.C,J3*%
X133045000Y-68280000D03*
D11*
%TO.N,+5V*%
X127965000Y-68280000D03*
%TD*%
D10*
%TO.N,GND*%
%TO.C,J4*%
X121615000Y-68254000D03*
D11*
%TO.N,+5V*%
X116535000Y-68254000D03*
%TD*%
D12*
%TO.N,GND*%
%TO.C,J5*%
X188930000Y-99250000D03*
D13*
X188930000Y-101790000D03*
%TO.N,+5V*%
X186390000Y-99250000D03*
X186390000Y-101790000D03*
%TO.N,LDP_CLOCK*%
X183850000Y-99250000D03*
%TO.N,MAINT_CLOCK*%
X183850000Y-101790000D03*
%TO.N,/H-R1_LD*%
X181310000Y-99250000D03*
%TO.N,/H-R2-MD*%
X181310000Y-101790000D03*
%TD*%
D12*
%TO.N,GND*%
%TO.C,J6*%
X189000000Y-108380000D03*
D13*
X189000000Y-110920000D03*
%TO.N,+5V*%
X186460000Y-108380000D03*
X186460000Y-110920000D03*
%TO.N,CS1_CLOCK*%
X183920000Y-108380000D03*
%TO.N,VU1_CLOCK*%
X183920000Y-110920000D03*
%TO.N,/H-R3_C1D*%
X181380000Y-108380000D03*
%TO.N,/H-R4_V1D*%
X181380000Y-110920000D03*
%TO.N,CS2_CLOCK*%
X178840000Y-108380000D03*
%TO.N,VU2_CLOCK*%
X178840000Y-110920000D03*
%TO.N,/H-R5_C2D*%
X176300000Y-108380000D03*
%TO.N,/H-R6_V2D*%
X176300000Y-110920000D03*
%TD*%
D12*
%TO.N,GND*%
%TO.C,J7*%
X188976000Y-117334000D03*
D13*
%TO.N,+5V*%
X186436000Y-117334000D03*
%TO.N,DP_LOAD*%
X183896000Y-117334000D03*
%TO.N,DP_CLOCK*%
X181356000Y-117334000D03*
%TO.N,DP_DATA_IN*%
X178816000Y-117334000D03*
%TD*%
D12*
%TO.N,GND*%
%TO.C,J8*%
X188976000Y-130810000D03*
D13*
%TO.N,+5V*%
X186436000Y-130810000D03*
%TO.N,VU_STROBE*%
X183896000Y-130810000D03*
%TO.N,VU_RESET*%
X181356000Y-130810000D03*
%TO.N,SPECTRUM_LEFT*%
X178816000Y-130810000D03*
%TO.N,SPECTRUM_RIGHT*%
X176276000Y-130810000D03*
%TD*%
D12*
%TO.N,+5V*%
%TO.C,J9*%
X181320000Y-79145000D03*
D13*
X181320000Y-76605000D03*
%TO.N,GND*%
X183860000Y-79145000D03*
X183860000Y-76605000D03*
%TO.N,SCL*%
X186400000Y-79145000D03*
X186400000Y-76605000D03*
%TO.N,SDA*%
X188940000Y-79145000D03*
X188940000Y-76605000D03*
%TD*%
D12*
%TO.N,GND*%
%TO.C,J10*%
X188920000Y-84885000D03*
D13*
X188920000Y-87425000D03*
%TO.N,+5V*%
X186380000Y-84885000D03*
X186380000Y-87425000D03*
%TO.N,TX1*%
X183840000Y-84885000D03*
%TO.N,TX0*%
X183840000Y-87425000D03*
%TO.N,RX1*%
X181300000Y-84885000D03*
%TO.N,RX0*%
X181300000Y-87425000D03*
%TD*%
D12*
%TO.N,GND*%
%TO.C,J11*%
X188951000Y-93751000D03*
D13*
%TO.N,OE*%
X186411000Y-93751000D03*
%TO.N,SCL*%
X183871000Y-93751000D03*
%TO.N,SDA*%
X181331000Y-93751000D03*
%TO.N,+5V*%
X178791000Y-93751000D03*
X176251000Y-93751000D03*
%TD*%
D14*
%TO.N,/H-R2-MD*%
%TO.C,R2*%
X155290000Y-102822000D03*
D15*
%TO.N,MAINT_DATA*%
X150210000Y-102822000D03*
%TD*%
D14*
%TO.N,/H-R3_C1D*%
%TO.C,R3*%
X155290000Y-100534000D03*
D15*
%TO.N,CS1_DATA*%
X150210000Y-100534000D03*
%TD*%
D14*
%TO.N,CS2_DATA*%
%TO.C,R4*%
X150210000Y-98246000D03*
D15*
%TO.N,/H-R5_C2D*%
X155290000Y-98246000D03*
%TD*%
D14*
%TO.N,VU1_DATA*%
%TO.C,R5*%
X150210000Y-95958000D03*
D15*
%TO.N,/H-R4_V1D*%
X155290000Y-95958000D03*
%TD*%
D14*
%TO.N,VU2_DATA*%
%TO.C,R6*%
X150210000Y-93670000D03*
D15*
%TO.N,/H-R6_V2D*%
X155290000Y-93670000D03*
%TD*%
D16*
%TO.N,GND*%
%TO.C,RN1*%
X163068000Y-76454000D03*
D17*
%TO.N,JUMPER1*%
X160528000Y-76454000D03*
%TO.N,JUMPER2*%
X157988000Y-76454000D03*
%TO.N,JUMPER3*%
X155448000Y-76454000D03*
%TO.N,JUMPER4*%
X152908000Y-76454000D03*
%TO.N,JUMPER5*%
X150368000Y-76454000D03*
%TD*%
D18*
%TO.N,unconnected-(U1-Pad0)*%
%TO.C,U1*%
X90780000Y-87130000D03*
%TO.N,+12V*%
X90780000Y-89670000D03*
%TO.N,GND*%
X90780000Y-92210000D03*
%TO.N,N/C*%
X90780000Y-94750000D03*
%TO.N,GND*%
X90780000Y-97290000D03*
D19*
%TO.N,+5V*%
X91610000Y-83600000D03*
%TO.N,N/C*%
X107838800Y-97361200D03*
%TD*%
D18*
%TO.N,unconnected-(U2-Pad0)*%
%TO.C,U2*%
X105015400Y-130406600D03*
%TO.N,unconnected-(U2-Pad1)*%
X120205400Y-127866600D03*
%TO.N,unconnected-(U2-Pad2)*%
X102475400Y-130406600D03*
%TO.N,unconnected-(U2-Pad3)*%
X117715400Y-127866600D03*
%TO.N,unconnected-(U2-Pad4)*%
X107555400Y-130406600D03*
%TO.N,unconnected-(U2-Pad5)*%
X105015400Y-105000600D03*
%TO.N,unconnected-(U2-Pad18)*%
X112635400Y-105000600D03*
%TO.N,unconnected-(U2-Pad19)*%
X110095400Y-105000600D03*
%TO.N,unconnected-(U2-Pad21)*%
X112635400Y-127866600D03*
%TO.N,unconnected-(U2-Pad22)*%
X115175400Y-127866600D03*
%TO.N,unconnected-(U2-Pad23)*%
X107555400Y-105000600D03*
%TO.N,unconnected-(U2-Pad25)*%
X107555400Y-127866600D03*
%TO.N,unconnected-(U2-Pad26)*%
X115175400Y-105000600D03*
%TO.N,unconnected-(U2-Pad27)*%
X110095400Y-127866600D03*
%TO.N,unconnected-(U2-Pad32)*%
X112635400Y-130406600D03*
%TO.N,unconnected-(U2-Pad33)*%
X110095400Y-102460600D03*
%TO.N,unconnected-(U2-Pad34)*%
X107555400Y-102460600D03*
%TO.N,unconnected-(U2-Pad35)*%
X112635400Y-102460600D03*
%TO.N,unconnected-(U2-Pad39)*%
X115175400Y-102460600D03*
%TO.N,GND*%
X105015400Y-127866600D03*
X120255400Y-130406600D03*
X120255400Y-102460600D03*
%TO.N,+5V*%
X102475400Y-127866600D03*
%TO.N,3.3V*%
X102475400Y-105000600D03*
%TO.N,unconnected-(U2-Pad80)*%
X99935400Y-127866600D03*
%TO.N,unconnected-(U2-Pad81)*%
X97395400Y-127866600D03*
%TO.N,unconnected-(U2-Pad82)*%
X110095400Y-130406600D03*
%TO.N,unconnected-(U2-Pad83)*%
X99935400Y-130406600D03*
%TO.N,unconnected-(U2-Pad84)*%
X97395400Y-130406600D03*
%TO.N,unconnected-(U2-Pad85)*%
X120255400Y-105000600D03*
%TO.N,unconnected-(U2-Pad86)*%
X117715400Y-105000600D03*
%TO.N,unconnected-(U2-Pad87)*%
X99935400Y-105000600D03*
%TO.N,unconnected-(U2-Pad88)*%
X97395400Y-105000600D03*
%TO.N,unconnected-(U2-Pad89)*%
X117715400Y-102460600D03*
%TO.N,unconnected-(U2-Pad90)*%
X105015400Y-102460600D03*
%TO.N,unconnected-(U2-Pad91)*%
X102475400Y-102460600D03*
%TO.N,unconnected-(U2-Pad92)*%
X99935400Y-102460600D03*
%TO.N,unconnected-(U2-Pad93)*%
X97395400Y-102460600D03*
%TO.N,ESP_LOGIC_RX*%
X115175400Y-130406600D03*
%TO.N,ESP_LOGIC_TX*%
X117715400Y-130406600D03*
%TD*%
D14*
%TO.N,/H-R1_LD*%
%TO.C,R1*%
X155290000Y-105110000D03*
D15*
%TO.N,LDP_DATA*%
X150210000Y-105110000D03*
%TD*%
D18*
%TO.N,JUMPER5*%
%TO.C,SW1*%
X125476000Y-89091000D03*
%TO.N,JUMPER4*%
X122936000Y-89091000D03*
%TO.N,JUMPER3*%
X120396000Y-89091000D03*
%TO.N,JUMPER2*%
X117856000Y-89091000D03*
%TO.N,JUMPER1*%
X115316000Y-89091000D03*
%TO.N,+5V*%
X115316000Y-81089000D03*
X117856000Y-81089000D03*
X120396000Y-81089000D03*
X122936000Y-81089000D03*
X125476000Y-81089000D03*
%TD*%
%TO.N,GND*%
%TO.C,SW2*%
X188820000Y-71020000D03*
%TO.N,RESET*%
X188820000Y-66520000D03*
%TO.N,GND*%
X195320000Y-71020000D03*
%TO.N,RESET*%
X195320000Y-66520000D03*
%TD*%
%TO.N,TX0*%
%TO.C,U4*%
X165710000Y-119470000D03*
%TO.N,RX0*%
X168250000Y-119470000D03*
%TO.N,OE*%
X165710000Y-116930000D03*
%TO.N,DP_DATA_IN*%
X168250000Y-116930000D03*
%TO.N,DP_CLOCK*%
X165710000Y-114390000D03*
%TO.N,DP_LOAD*%
X168250000Y-114390000D03*
%TO.N,unconnected-(U4-Pad6)*%
X165710000Y-111850000D03*
%TO.N,unconnected-(U4-Pad7)*%
X168250000Y-111850000D03*
%TO.N,unconnected-(U4-Pad8)*%
X165710000Y-109310000D03*
%TO.N,unconnected-(U4-Pad9)*%
X168250000Y-109310000D03*
%TO.N,unconnected-(U4-Pad10)*%
X165710000Y-106770000D03*
%TO.N,unconnected-(U4-Pad11)*%
X168250000Y-106770000D03*
%TO.N,VU_STROBE*%
X165710000Y-104230000D03*
%TO.N,VU_RESET*%
X168250000Y-104230000D03*
%TO.N,unconnected-(U4-Pad14)*%
X165710000Y-101690000D03*
%TO.N,unconnected-(U4-Pad15)*%
X168250000Y-101690000D03*
%TO.N,LOGIC_2560_RX*%
X165710000Y-99150000D03*
%TO.N,LOGIC_2560_TX*%
X168250000Y-99150000D03*
%TO.N,TX1*%
X165710000Y-96610000D03*
%TO.N,RX1*%
X168250000Y-96610000D03*
%TO.N,SDA*%
X165710000Y-94070000D03*
%TO.N,SCL*%
X168250000Y-94070000D03*
%TO.N,unconnected-(U4-Pad22)*%
X165710000Y-91530000D03*
%TO.N,unconnected-(U4-Pad23)*%
X168250000Y-91530000D03*
%TO.N,unconnected-(U4-Pad24)*%
X165710000Y-88990000D03*
%TO.N,N/C*%
X168250000Y-129630000D03*
X168250000Y-127090000D03*
D20*
X140020000Y-117490000D03*
X154300000Y-82720000D03*
D18*
%TO.N,unconnected-(U4-Pad25)*%
X168250000Y-88990000D03*
%TO.N,unconnected-(U4-Pad26)*%
X165710000Y-86450000D03*
%TO.N,unconnected-(U4-Pad27)*%
X168250000Y-86450000D03*
%TO.N,unconnected-(U4-Pad28)*%
X165710000Y-83910000D03*
%TO.N,unconnected-(U4-Pad29)*%
X168250000Y-83964000D03*
%TO.N,MAINT_DATA*%
X165710000Y-81370000D03*
%TO.N,unconnected-(U4-Pad31)*%
X168250000Y-81370000D03*
%TO.N,MAINT_CLOCK*%
X132760000Y-99150000D03*
%TO.N,unconnected-(U4-Pad33)*%
X135300000Y-99150000D03*
%TO.N,LDP_DATA*%
X132760000Y-96610000D03*
%TO.N,unconnected-(U4-Pad35)*%
X135300000Y-96610000D03*
%TO.N,LDP_CLOCK*%
X132760000Y-94070000D03*
%TO.N,unconnected-(U4-Pad37)*%
X135300000Y-94070000D03*
%TO.N,CS1_DATA*%
X132760000Y-91530000D03*
%TO.N,unconnected-(U4-Pad39)*%
X135300000Y-91530000D03*
%TO.N,CS1_CLOCK*%
X132760000Y-88990000D03*
%TO.N,unconnected-(U4-Pad41)*%
X135300000Y-88990000D03*
%TO.N,CS2_DATA*%
X132760000Y-86450000D03*
%TO.N,unconnected-(U4-Pad43)*%
X135300000Y-86450000D03*
%TO.N,CS2_CLOCK*%
X132760000Y-83910000D03*
%TO.N,JUMPER5*%
X135300000Y-83910000D03*
%TO.N,VU1_DATA*%
X132760000Y-81370000D03*
%TO.N,JUMPER4*%
X135300000Y-81370000D03*
%TO.N,VU1_CLOCK*%
X137840000Y-81370000D03*
%TO.N,JUMPER3*%
X137840000Y-83910000D03*
%TO.N,VU2_DATA*%
X140380000Y-81370000D03*
%TO.N,JUMPER2*%
X140380000Y-83910000D03*
%TO.N,VU2_CLOCK*%
X142920000Y-81459000D03*
%TO.N,JUMPER1*%
X142920000Y-83910000D03*
%TO.N,unconnected-(U4-Pad60)*%
X143710000Y-129630000D03*
%TO.N,GND*%
X165710000Y-127090000D03*
%TO.N,+5V*%
X165710000Y-129630000D03*
%TO.N,unconnected-(U4-Pad71)*%
X165710000Y-124550000D03*
%TO.N,unconnected-(U4-Pad72)*%
X168250000Y-124550000D03*
%TO.N,unconnected-(U4-Pad100)*%
X153870000Y-129630000D03*
%TO.N,unconnected-(U4-Pad101)*%
X151330000Y-129630000D03*
%TO.N,unconnected-(U4-Pad102)*%
X148790000Y-129630000D03*
%TO.N,unconnected-(U4-Pad103)*%
X146250000Y-129630000D03*
%TO.N,unconnected-(U4-Pad104)*%
X165710000Y-122010000D03*
%TO.N,RESET*%
X168250000Y-122010000D03*
%TO.N,SPECTRUM_LEFT*%
X132760000Y-119470000D03*
%TO.N,SPECTRUM_RIGHT*%
X135300000Y-119470000D03*
%TO.N,TRIM1*%
X132760000Y-116930000D03*
%TO.N,TRIM2*%
X135300000Y-116930000D03*
%TO.N,TRIM3*%
X132760000Y-114390000D03*
%TO.N,TRIM4*%
X135300000Y-114390000D03*
%TO.N,TRIM5*%
X132760000Y-111850000D03*
%TO.N,BATTERY_LEVEL*%
X135300000Y-111850000D03*
%TO.N,EXT_MIC*%
X132760000Y-109310000D03*
%TO.N,unconnected-(U4-Pad209)*%
X135300000Y-109310000D03*
%TO.N,unconnected-(U4-Pad210)*%
X132760000Y-106770000D03*
%TO.N,unconnected-(U4-Pad211)*%
X135300000Y-106770000D03*
%TO.N,unconnected-(U4-Pad212)*%
X132760000Y-104230000D03*
%TO.N,unconnected-(U4-Pad213)*%
X135300000Y-104230000D03*
%TO.N,unconnected-(U4-Pad214)*%
X132760000Y-101690000D03*
%TO.N,unconnected-(U4-Pad215)*%
X135300000Y-101690000D03*
%TD*%
%TO.N,GND*%
%TO.C,RV1*%
X156140000Y-67935000D03*
%TO.N,TRIM1*%
X153600000Y-65325000D03*
%TO.N,+5V*%
X151060000Y-67935000D03*
%TD*%
%TO.N,GND*%
%TO.C,RV2*%
X171015000Y-67935000D03*
%TO.N,TRIM3*%
X168475000Y-65325000D03*
%TO.N,+5V*%
X165935000Y-67935000D03*
%TD*%
%TO.N,GND*%
%TO.C,RV3*%
X185890000Y-67935000D03*
%TO.N,TRIM5*%
X183350000Y-65325000D03*
%TO.N,+5V*%
X180810000Y-67935000D03*
%TD*%
%TO.N,GND*%
%TO.C,RV4*%
X163577500Y-67935000D03*
%TO.N,TRIM2*%
X161037500Y-65325000D03*
%TO.N,+5V*%
X158497500Y-67935000D03*
%TD*%
%TO.N,GND*%
%TO.C,RV5*%
X178452500Y-67935000D03*
%TO.N,TRIM4*%
X175912500Y-65325000D03*
%TO.N,+5V*%
X173372500Y-67935000D03*
%TD*%
D12*
%TO.N,ESP_LOGIC_RX*%
%TO.C,J13*%
X118545000Y-96315000D03*
D13*
%TO.N,ESP_LOGIC_TX*%
X118545000Y-93775000D03*
%TO.N,LOGIC_2560_RX*%
X121085000Y-96315000D03*
%TO.N,LOGIC_2560_TX*%
X121085000Y-93775000D03*
%TD*%
D12*
%TO.N,GND*%
%TO.C,J13*%
X188975000Y-123340000D03*
D13*
%TO.N,+5V*%
X186435000Y-123340000D03*
%TO.N,EXT_MIC*%
X183895000Y-123340000D03*
%TD*%
D14*
%TO.N,BATTERY_LEVEL*%
%TO.C,R7*%
X106172000Y-76962000D03*
D15*
%TO.N,POS*%
X111252000Y-76962000D03*
%TD*%
D14*
%TO.N,NEG*%
%TO.C,R8*%
X126238000Y-77140000D03*
D15*
%TO.N,BATTERY_LEVEL*%
X121158000Y-77140000D03*
%TD*%
D10*
%TO.N,POS*%
%TO.C,J12*%
X145625000Y-68170000D03*
D11*
%TO.N,NEG*%
X140545000Y-68170000D03*
%TD*%
D21*
%TO.N,SCL*%
X171297400Y-94297400D02*
X168062600Y-94297400D01*
X173754800Y-91840000D02*
X171297400Y-94297400D01*
X183871000Y-93751000D02*
X181960000Y-91840000D01*
X181960000Y-91840000D02*
X173754800Y-91840000D01*
%TO.N,RX0*%
X188630000Y-89570000D02*
X183445000Y-89570000D01*
X168250000Y-119470000D02*
X173674000Y-114046000D01*
X173674000Y-114046000D02*
X188976000Y-114046000D01*
X192278000Y-93218000D02*
X188630000Y-89570000D01*
X192278000Y-110744000D02*
X192278000Y-93218000D01*
X188976000Y-114046000D02*
X192278000Y-110744000D01*
X183445000Y-89570000D02*
X181300000Y-87425000D01*
%TO.N,TX0*%
X193040000Y-110998000D02*
X193040000Y-92710000D01*
X189230000Y-114808000D02*
X193040000Y-110998000D01*
X168960000Y-120810000D02*
X174962000Y-114808000D01*
X189450480Y-89120480D02*
X185535480Y-89120480D01*
X193040000Y-92710000D02*
X189450480Y-89120480D01*
X166635200Y-120810000D02*
X168960000Y-120810000D01*
X185535480Y-89120480D02*
X183840000Y-87425000D01*
X174962000Y-114808000D02*
X189230000Y-114808000D01*
X165522600Y-119697400D02*
X166635200Y-120810000D01*
%TO.N,OE*%
X191430000Y-110820000D02*
X191430000Y-97720000D01*
X168780000Y-115680000D02*
X171176000Y-113284000D01*
X190160000Y-96450000D02*
X187370000Y-96450000D01*
X165522600Y-117157400D02*
X167000000Y-115680000D01*
X187370000Y-96450000D02*
X186411000Y-95491000D01*
X186411000Y-95491000D02*
X186411000Y-93751000D01*
X167000000Y-115680000D02*
X168780000Y-115680000D01*
X171176000Y-113284000D02*
X188966000Y-113284000D01*
X191430000Y-97720000D02*
X190160000Y-96450000D01*
X188966000Y-113284000D02*
X191430000Y-110820000D01*
%TO.N,MAINT_DATA*%
X151298000Y-102822000D02*
X150210000Y-102822000D01*
X152340000Y-93884282D02*
X152340000Y-101780000D01*
X159450000Y-92210000D02*
X154014282Y-92210000D01*
X154014282Y-92210000D02*
X152340000Y-93884282D01*
X165710000Y-81370000D02*
X164410000Y-81370000D01*
X162420000Y-89240000D02*
X159450000Y-92210000D01*
X162420000Y-83360000D02*
X162420000Y-89240000D01*
X152340000Y-101780000D02*
X151298000Y-102822000D01*
X164410000Y-81370000D02*
X162420000Y-83360000D01*
%TO.N,JUMPER5*%
X149606000Y-75692000D02*
X135890000Y-75692000D01*
X135890000Y-75692000D02*
X131318000Y-80264000D01*
X131318000Y-85852000D02*
X128079000Y-89091000D01*
X131318000Y-80264000D02*
X131318000Y-85852000D01*
X150368000Y-76454000D02*
X149606000Y-75692000D01*
X128079000Y-89091000D02*
X125476000Y-89091000D01*
%TO.N,JUMPER4*%
X124397000Y-87630000D02*
X122936000Y-89091000D01*
X151384000Y-74930000D02*
X135508282Y-74930000D01*
X128524000Y-87630000D02*
X124397000Y-87630000D01*
X130556000Y-85598000D02*
X128524000Y-87630000D01*
X152908000Y-76454000D02*
X151384000Y-74930000D01*
X130556000Y-79882282D02*
X130556000Y-85598000D01*
X135508282Y-74930000D02*
X130556000Y-79882282D01*
%TO.N,JUMPER3*%
X153162000Y-74168000D02*
X135128000Y-74168000D01*
X129794000Y-79502000D02*
X129794000Y-85217000D01*
X122619000Y-86868000D02*
X120396000Y-89091000D01*
X129794000Y-85217000D02*
X128143000Y-86868000D01*
X128143000Y-86868000D02*
X122619000Y-86868000D01*
X135128000Y-74168000D02*
X129794000Y-79502000D01*
X155448000Y-76454000D02*
X153162000Y-74168000D01*
%TO.N,JUMPER2*%
X129032000Y-79248000D02*
X129032000Y-85090000D01*
X128016000Y-86106000D02*
X120841000Y-86106000D01*
X120841000Y-86106000D02*
X117856000Y-89091000D01*
X157988000Y-76454000D02*
X154940000Y-73406000D01*
X154940000Y-73406000D02*
X134874000Y-73406000D01*
X134874000Y-73406000D02*
X129032000Y-79248000D01*
X129032000Y-85090000D02*
X128016000Y-86106000D01*
%TO.N,JUMPER1*%
X156972000Y-72898000D02*
X160528000Y-76454000D01*
X128270000Y-84836000D02*
X128270000Y-78994000D01*
X119063000Y-85344000D02*
X127762000Y-85344000D01*
X127762000Y-85344000D02*
X128270000Y-84836000D01*
X128270000Y-78994000D02*
X134366000Y-72898000D01*
X115316000Y-89091000D02*
X119063000Y-85344000D01*
X134366000Y-72898000D02*
X156972000Y-72898000D01*
%TO.N,EXT_MIC*%
X155410000Y-123250000D02*
X142740000Y-110580000D01*
X183805000Y-123250000D02*
X155410000Y-123250000D01*
X142740000Y-110580000D02*
X134030000Y-110580000D01*
X183895000Y-123340000D02*
X183805000Y-123250000D01*
X134030000Y-110580000D02*
X132760000Y-109310000D01*
%TO.N,/H-R1_LD*%
X174010000Y-99250000D02*
X181310000Y-99250000D01*
X156800000Y-94760000D02*
X157350000Y-95310000D01*
X157350000Y-95310000D02*
X170070000Y-95310000D01*
X170070000Y-95310000D02*
X174010000Y-99250000D01*
X153270480Y-103090480D02*
X153270480Y-95759520D01*
X154270000Y-94760000D02*
X156800000Y-94760000D01*
X153270480Y-95759520D02*
X154270000Y-94760000D01*
X155290000Y-105110000D02*
X153270480Y-103090480D01*
%TO.N,/H-R2-MD*%
X154670000Y-97130000D02*
X164150000Y-97130000D01*
X171380000Y-97940000D02*
X175230000Y-101790000D01*
X164150000Y-97130000D02*
X164960000Y-97940000D01*
X153720000Y-101252000D02*
X153720000Y-98080000D01*
X153720000Y-98080000D02*
X154670000Y-97130000D01*
X164960000Y-97940000D02*
X171380000Y-97940000D01*
X155290000Y-102822000D02*
X153720000Y-101252000D01*
X175230000Y-101790000D02*
X181310000Y-101790000D01*
%TO.N,/H-R3_C1D*%
X175600000Y-109660000D02*
X180100000Y-109660000D01*
X157676000Y-102920000D02*
X168860000Y-102920000D01*
X155290000Y-100534000D02*
X157676000Y-102920000D01*
X180100000Y-109660000D02*
X181380000Y-108380000D01*
X168860000Y-102920000D02*
X175600000Y-109660000D01*
%TO.N,/H-R5_C2D*%
X164250000Y-99830000D02*
X164800000Y-100380000D01*
X164800000Y-100380000D02*
X171280000Y-100380000D01*
X155290000Y-98246000D02*
X156874000Y-99830000D01*
X171280000Y-100380000D02*
X176300000Y-105400000D01*
X176300000Y-105400000D02*
X176300000Y-108380000D01*
X156874000Y-99830000D02*
X164250000Y-99830000D01*
%TD*%
M02*
