M48
; DRILL file {KiCad (6.0.0-0)} date Monday, March 14, 2022 at 02:24:03 PM
; FORMAT={-:-/ absolute / inch / decimal}
; #@! TF.CreationDate,2022-03-14T14:24:03-04:00
; #@! TF.GenerationSoftware,Kicad,Pcbnew,(6.0.0-0)
; #@! TF.FileFunction,Plated,1,4,PTH
FMAT,2
INCH
; #@! TA.AperFunction,Plated,PTH,ComponentDrill
T1C0.0276
; #@! TA.AperFunction,Plated,PTH,ComponentDrill
T2C0.0300
; #@! TA.AperFunction,Plated,PTH,ComponentDrill
T3C0.0315
; #@! TA.AperFunction,Plated,PTH,ComponentDrill
T4C0.0394
; #@! TA.AperFunction,Plated,PTH,ComponentDrill
T5C0.0402
; #@! TA.AperFunction,Plated,PTH,ComponentDrill
T6C0.0512
; #@! TA.AperFunction,Plated,PTH,ComponentDrill
T7C0.0945
%
G90
G05
T1
X4.18Y-3.03
X4.38Y-3.03
X4.77Y-3.037
X4.97Y-3.037
T2
X3.8345Y-4.0339
X3.8345Y-4.1339
X3.8345Y-5.0341
X3.8345Y-5.1341
X3.9345Y-4.0339
X3.9345Y-4.1339
X3.9345Y-5.0341
X3.9345Y-5.1341
X4.0345Y-4.0339
X4.0345Y-4.1339
X4.0345Y-5.0341
X4.0345Y-5.1341
X4.1345Y-4.0339
X4.1345Y-4.1339
X4.1345Y-5.0341
X4.1345Y-5.1341
X4.2345Y-4.0339
X4.2345Y-4.1339
X4.2345Y-5.0341
X4.2345Y-5.1341
X4.3345Y-4.0339
X4.3345Y-4.1339
X4.3345Y-5.0341
X4.3345Y-5.1341
X4.4345Y-4.0339
X4.4345Y-4.1339
X4.4345Y-5.0341
X4.4345Y-5.1341
X4.5345Y-4.0339
X4.5345Y-4.1339
X4.5345Y-5.0341
X4.5345Y-5.1341
X4.54Y-3.1925
X4.54Y-3.5075
X4.6345Y-4.0339
X4.6345Y-4.1339
X4.6345Y-5.0341
X4.6345Y-5.1341
X4.64Y-3.1925
X4.64Y-3.5075
X4.7325Y-5.0341
X4.7345Y-4.0339
X4.7345Y-4.1339
X4.7345Y-5.1341
X4.74Y-3.1925
X4.74Y-3.5075
X4.84Y-3.1925
X4.84Y-3.5075
X4.94Y-3.1925
X4.94Y-3.5075
X5.2258Y-3.1636
X5.2258Y-3.2636
X5.2258Y-3.3636
X5.2258Y-3.4636
X5.2258Y-3.5636
X5.2258Y-3.6636
X5.2258Y-3.7636
X5.2258Y-3.8636
X5.2258Y-3.9636
X5.2258Y-4.0636
X5.2258Y-4.1636
X5.2258Y-4.2636
X5.2258Y-4.3636
X5.2258Y-4.4636
X5.2258Y-4.5636
X5.2258Y-4.6636
X5.3258Y-3.1636
X5.3258Y-3.2636
X5.3258Y-3.3636
X5.3258Y-3.4636
X5.3258Y-3.5636
X5.3258Y-3.6636
X5.3258Y-3.7636
X5.3258Y-3.8636
X5.3258Y-3.9636
X5.3258Y-4.0636
X5.3258Y-4.1636
X5.3258Y-4.2636
X5.3258Y-4.3636
X5.3258Y-4.4636
X5.3258Y-4.5636
X5.3258Y-4.6636
X5.4258Y-3.2636
X5.4262Y-3.1636
X5.5258Y-3.1636
X5.5258Y-3.2636
X5.6258Y-3.1636
X5.6258Y-3.2636
X5.9472Y-2.6746
X6.0472Y-2.5719
X6.1472Y-2.6746
X6.2401Y-2.6746
X6.3401Y-2.5719
X6.4401Y-2.6746
X6.5258Y-3.1636
X6.5258Y-3.2636
X6.5258Y-3.3636
X6.5258Y-3.4636
X6.5258Y-3.5636
X6.5258Y-3.8636
X6.5258Y-3.9636
X6.5258Y-4.0636
X6.5258Y-4.1636
X6.5258Y-4.2636
X6.5258Y-4.3636
X6.5258Y-4.5636
X6.5258Y-4.6636
X6.5258Y-4.7636
X6.5258Y-4.8636
X6.5258Y-4.9636
X6.5258Y-5.0636
X6.5258Y-5.1636
X6.5262Y-3.6636
X6.5262Y-3.7636
X6.5262Y-4.4636
X6.5329Y-2.6746
X6.6226Y-3.7636
X6.6258Y-3.1636
X6.6258Y-3.2636
X6.6258Y-3.3636
X6.6258Y-3.4636
X6.6258Y-3.5636
X6.6258Y-3.6636
X6.6258Y-3.8636
X6.6258Y-3.9636
X6.6258Y-4.0636
X6.6258Y-4.1636
X6.6258Y-4.2636
X6.6258Y-4.3636
X6.6258Y-4.4636
X6.6258Y-4.5636
X6.6258Y-4.6636
X6.6258Y-4.7636
X6.6258Y-4.8636
X6.6258Y-4.9636
X6.6258Y-5.0636
X6.6258Y-5.1636
X6.6329Y-2.5719
X6.7329Y-2.6746
X6.8257Y-2.6746
X6.9257Y-2.5719
X7.0257Y-2.6746
X7.1185Y-2.6746
X7.2185Y-2.5719
X7.3185Y-2.6746
X7.4287Y-2.6161
X7.4287Y-2.7933
X7.6846Y-2.6161
X7.6846Y-2.7933
T3
X5.6748Y-4.4732
X5.7228Y-3.6209
X5.7228Y-3.7428
X5.7228Y-3.8668
X5.7228Y-3.9899
X5.7228Y-4.1111
X5.7228Y-4.2311
X5.7748Y-4.4732
X5.8748Y-4.4732
X5.9748Y-4.4732
X6.0071Y-2.9862
X6.0748Y-4.4732
X6.1071Y-2.9862
X6.1228Y-3.6209
X6.1228Y-3.7428
X6.1228Y-3.8668
X6.1228Y-3.9899
X6.1228Y-4.1111
X6.1228Y-4.2311
X6.1748Y-4.4732
X6.2071Y-2.9862
X6.2748Y-4.4732
X6.3071Y-2.9862
X6.4071Y-2.9862
X6.5071Y-2.9862
X6.6071Y-2.9862
T4
X4.6671Y-3.6919
X4.6671Y-3.7919
X4.7671Y-3.6919
X4.7671Y-3.7919
X6.937Y-3.6244
X6.937Y-3.7244
X6.94Y-5.15
X6.9429Y-4.272
X6.9429Y-4.372
X7.037Y-3.6244
X7.037Y-3.7244
X7.04Y-4.6194
X7.04Y-5.15
X7.0429Y-4.272
X7.0429Y-4.372
X7.137Y-3.6244
X7.137Y-3.7244
X7.1386Y-3.0161
X7.1386Y-3.1161
X7.1398Y-3.339
X7.1398Y-3.439
X7.14Y-4.6194
X7.14Y-5.15
X7.1425Y-3.9028
X7.1425Y-4.0028
X7.1429Y-4.272
X7.1429Y-4.372
X7.237Y-3.6244
X7.237Y-3.7244
X7.2386Y-3.0161
X7.2386Y-3.1161
X7.2398Y-3.339
X7.2398Y-3.439
X7.24Y-4.6194
X7.24Y-5.15
X7.2425Y-3.9028
X7.2425Y-4.0028
X7.2429Y-4.272
X7.2429Y-4.372
X7.2494Y-4.8831
X7.337Y-3.6244
X7.337Y-3.7244
X7.3386Y-3.0161
X7.3386Y-3.1161
X7.3398Y-3.339
X7.3398Y-3.439
X7.34Y-4.6194
X7.34Y-5.15
X7.3425Y-3.9028
X7.3425Y-4.0028
X7.3429Y-4.272
X7.3429Y-4.372
X7.3494Y-4.8831
X7.437Y-3.6244
X7.437Y-3.7244
X7.4386Y-3.0161
X7.4386Y-3.1161
X7.4398Y-3.339
X7.4398Y-3.439
X7.44Y-4.6194
X7.44Y-5.15
X7.4425Y-3.9028
X7.4425Y-4.0028
X7.4429Y-4.272
X7.4429Y-4.372
X7.4494Y-4.8831
T5
X3.574Y-3.4303
X3.574Y-3.5303
X3.574Y-3.6303
X3.574Y-3.7303
X3.574Y-3.8303
T6
X3.6925Y-2.7813
X3.6925Y-2.9813
X4.1378Y-2.6882
X4.3378Y-2.6882
X4.588Y-2.6872
X4.788Y-2.6872
X5.038Y-2.6882
X5.238Y-2.6882
X5.5333Y-2.6839
X5.7333Y-2.6839
T7
X3.6067Y-3.2913
X4.2366Y-3.8228
X5.5321Y-4.6636
X5.7797Y-3.2057
T0
M30
