%TF.GenerationSoftware,KiCad,Pcbnew,(6.0.0-0)*%
%TF.CreationDate,2022-03-14T14:23:59-04:00*%
%TF.ProjectId,BODY LED CONTROLLER,424f4459-204c-4454-9420-434f4e54524f,1.0*%
%TF.SameCoordinates,Original*%
%TF.FileFunction,Copper,L3,Inr*%
%TF.FilePolarity,Positive*%
%FSLAX46Y46*%
G04 Gerber Fmt 4.6, Leading zero omitted, Abs format (unit mm)*
G04 Created by KiCad (PCBNEW (6.0.0-0)) date 2022-03-14 14:23:59*
%MOMM*%
%LPD*%
G01*
G04 APERTURE LIST*
%TA.AperFunction,ComponentPad*%
%ADD10R,2.500000X2.500000*%
%TD*%
%TA.AperFunction,ComponentPad*%
%ADD11C,2.500000*%
%TD*%
%TA.AperFunction,ComponentPad*%
%ADD12R,1.700000X1.700000*%
%TD*%
%TA.AperFunction,ComponentPad*%
%ADD13O,1.700000X1.700000*%
%TD*%
%TA.AperFunction,ComponentPad*%
%ADD14C,1.600000*%
%TD*%
%TA.AperFunction,ComponentPad*%
%ADD15O,1.600000X1.600000*%
%TD*%
%TA.AperFunction,ComponentPad*%
%ADD16C,1.836000*%
%TD*%
%TA.AperFunction,ComponentPad*%
%ADD17C,2.600000*%
%TD*%
%TA.AperFunction,ComponentPad*%
%ADD18C,1.524000*%
%TD*%
%TA.AperFunction,ComponentPad*%
%ADD19R,1.600000X1.600000*%
%TD*%
%TA.AperFunction,ComponentPad*%
%ADD20C,1.400000*%
%TD*%
%TA.AperFunction,ComponentPad*%
%ADD21O,1.400000X1.400000*%
%TD*%
%TA.AperFunction,Conductor*%
%ADD22C,0.250000*%
%TD*%
G04 APERTURE END LIST*
D10*
%TO.N,GND*%
%TO.C,J1*%
X93790000Y-70645000D03*
D11*
%TO.N,+12V*%
X93790000Y-75725000D03*
%TD*%
D10*
%TO.N,GND*%
%TO.C,J2*%
X110180000Y-68280000D03*
D11*
%TO.N,+5V*%
X105100000Y-68280000D03*
%TD*%
D10*
%TO.N,GND*%
%TO.C,J3*%
X133045000Y-68280000D03*
D11*
%TO.N,+5V*%
X127965000Y-68280000D03*
%TD*%
D10*
%TO.N,GND*%
%TO.C,J4*%
X121615000Y-68254000D03*
D11*
%TO.N,+5V*%
X116535000Y-68254000D03*
%TD*%
D12*
%TO.N,GND*%
%TO.C,J7*%
X188976000Y-117334000D03*
D13*
%TO.N,+5V*%
X186436000Y-117334000D03*
%TO.N,DP_LOAD*%
X183896000Y-117334000D03*
%TO.N,DP_CLOCK*%
X181356000Y-117334000D03*
%TO.N,DP_DATA_IN*%
X178816000Y-117334000D03*
%TD*%
D12*
%TO.N,GND*%
%TO.C,J8*%
X188976000Y-130810000D03*
D13*
%TO.N,+5V*%
X186436000Y-130810000D03*
%TO.N,VU_STROBE*%
X183896000Y-130810000D03*
%TO.N,VU_RESET*%
X181356000Y-130810000D03*
%TO.N,SPECTRUM_LEFT*%
X178816000Y-130810000D03*
%TO.N,SPECTRUM_RIGHT*%
X176276000Y-130810000D03*
%TD*%
D14*
%TO.N,Net-(J5-Pad8)*%
%TO.C,R2*%
X155520000Y-104422000D03*
D15*
%TO.N,MAINT_DATA*%
X145360000Y-104422000D03*
%TD*%
D14*
%TO.N,Net-(J6-Pad7)*%
%TO.C,R3*%
X155520000Y-101344000D03*
D15*
%TO.N,CS1_DATA*%
X145360000Y-101344000D03*
%TD*%
D14*
%TO.N,Net-(J6-Pad11)*%
%TO.C,R4*%
X155520000Y-98216000D03*
D15*
%TO.N,CS2_DATA*%
X145360000Y-98216000D03*
%TD*%
D14*
%TO.N,Net-(J6-Pad8)*%
%TO.C,R5*%
X155520000Y-95068000D03*
D15*
%TO.N,VU1_DATA*%
X145360000Y-95068000D03*
%TD*%
D14*
%TO.N,Net-(J6-Pad12)*%
%TO.C,R6*%
X155520000Y-91970000D03*
D15*
%TO.N,VU2_DATA*%
X145360000Y-91970000D03*
%TD*%
D16*
%TO.N,unconnected-(U1-PadEN)*%
%TO.C,U1*%
X90780000Y-87130000D03*
%TO.N,GND*%
X90780000Y-92210000D03*
X90780000Y-94750000D03*
D11*
%TO.N,N/C*%
X91610000Y-83600000D03*
D17*
X107610000Y-97100000D03*
D16*
%TO.N,+12V*%
X90780000Y-89670000D03*
%TO.N,+5V*%
X90780000Y-97290000D03*
%TD*%
D18*
%TO.N,unconnected-(U2-Pad0)*%
%TO.C,U2*%
X105015400Y-130406600D03*
%TO.N,unconnected-(U2-Pad1)*%
X120205400Y-127866600D03*
%TO.N,unconnected-(U2-Pad2)*%
X102475400Y-130406600D03*
%TO.N,unconnected-(U2-Pad3)*%
X117715400Y-127866600D03*
%TO.N,unconnected-(U2-Pad4)*%
X107555400Y-130406600D03*
%TO.N,unconnected-(U2-Pad5)*%
X105015400Y-105000600D03*
%TO.N,unconnected-(U2-Pad18)*%
X112635400Y-105000600D03*
%TO.N,unconnected-(U2-Pad19)*%
X110095400Y-105000600D03*
%TO.N,unconnected-(U2-Pad21)*%
X112635400Y-127866600D03*
%TO.N,unconnected-(U2-Pad22)*%
X115175400Y-127866600D03*
%TO.N,unconnected-(U2-Pad23)*%
X107555400Y-105000600D03*
%TO.N,unconnected-(U2-Pad25)*%
X107555400Y-127866600D03*
%TO.N,unconnected-(U2-Pad26)*%
X115175400Y-105000600D03*
%TO.N,unconnected-(U2-Pad27)*%
X110095400Y-127866600D03*
%TO.N,unconnected-(U2-Pad32)*%
X112635400Y-130406600D03*
%TO.N,unconnected-(U2-Pad33)*%
X110095400Y-102460600D03*
%TO.N,unconnected-(U2-Pad34)*%
X107555400Y-102460600D03*
%TO.N,unconnected-(U2-Pad35)*%
X112635400Y-102460600D03*
%TO.N,unconnected-(U2-Pad39)*%
X115175400Y-102460600D03*
%TO.N,GND*%
X105015400Y-127866600D03*
X120255400Y-130406600D03*
X120255400Y-102460600D03*
%TO.N,+5V*%
X102475400Y-127866600D03*
%TO.N,3.3V*%
X102475400Y-105000600D03*
%TO.N,unconnected-(U2-Pad80)*%
X99935400Y-127866600D03*
%TO.N,unconnected-(U2-Pad81)*%
X97395400Y-127866600D03*
%TO.N,unconnected-(U2-Pad82)*%
X110095400Y-130406600D03*
%TO.N,unconnected-(U2-Pad83)*%
X99935400Y-130406600D03*
%TO.N,unconnected-(U2-Pad84)*%
X97395400Y-130406600D03*
%TO.N,unconnected-(U2-Pad85)*%
X120255400Y-105000600D03*
%TO.N,unconnected-(U2-Pad86)*%
X117715400Y-105000600D03*
%TO.N,unconnected-(U2-Pad87)*%
X99935400Y-105000600D03*
%TO.N,unconnected-(U2-Pad88)*%
X97395400Y-105000600D03*
%TO.N,unconnected-(U2-Pad89)*%
X117715400Y-102460600D03*
%TO.N,unconnected-(U2-Pad90)*%
X105015400Y-102460600D03*
%TO.N,unconnected-(U2-Pad91)*%
X102475400Y-102460600D03*
%TO.N,unconnected-(U2-Pad92)*%
X99935400Y-102460600D03*
%TO.N,unconnected-(U2-Pad93)*%
X97395400Y-102460600D03*
%TO.N,ESP_LOGIC_RX*%
X115175400Y-130406600D03*
%TO.N,ESP_LOGIC_TX*%
X117715400Y-130406600D03*
%TD*%
D14*
%TO.N,Net-(J5-Pad7)*%
%TO.C,R1*%
X155520000Y-107470000D03*
D15*
%TO.N,LDP_DATA*%
X145360000Y-107470000D03*
%TD*%
D18*
%TO.N,JUMPER5*%
%TO.C,SW1*%
X125476000Y-89091000D03*
%TO.N,JUMPER4*%
X122936000Y-89091000D03*
%TO.N,JUMPER3*%
X120396000Y-89091000D03*
%TO.N,JUMPER2*%
X117856000Y-89091000D03*
%TO.N,JUMPER1*%
X115316000Y-89091000D03*
%TO.N,+5V*%
X115316000Y-81089000D03*
X117856000Y-81089000D03*
X120396000Y-81089000D03*
X122936000Y-81089000D03*
X125476000Y-81089000D03*
%TD*%
%TO.N,GND*%
%TO.C,RV1*%
X156140000Y-67935000D03*
%TO.N,TRIM1*%
X153600000Y-65325000D03*
%TO.N,+5V*%
X151060000Y-67935000D03*
%TD*%
%TO.N,GND*%
%TO.C,RV2*%
X171015000Y-67935000D03*
%TO.N,TRIM3*%
X168475000Y-65325000D03*
%TO.N,+5V*%
X165935000Y-67935000D03*
%TD*%
%TO.N,GND*%
%TO.C,RV3*%
X185890000Y-67935000D03*
%TO.N,TRIM5*%
X183350000Y-65325000D03*
%TO.N,+5V*%
X180810000Y-67935000D03*
%TD*%
%TO.N,GND*%
%TO.C,RV4*%
X163577500Y-67935000D03*
%TO.N,TRIM2*%
X161037500Y-65325000D03*
%TO.N,+5V*%
X158497500Y-67935000D03*
%TD*%
%TO.N,GND*%
%TO.C,RV5*%
X178452500Y-67935000D03*
%TO.N,TRIM4*%
X175912500Y-65325000D03*
%TO.N,+5V*%
X173372500Y-67935000D03*
%TD*%
D12*
%TO.N,ESP_LOGIC_RX*%
%TO.C,J13*%
X118545000Y-96315000D03*
D13*
%TO.N,ESP_LOGIC_TX*%
X118545000Y-93775000D03*
%TO.N,LOGIC_2560_RX*%
X121085000Y-96315000D03*
%TO.N,LOGIC_2560_TX*%
X121085000Y-93775000D03*
%TD*%
D12*
%TO.N,GND*%
%TO.C,J13*%
X189215000Y-124030000D03*
D13*
%TO.N,+5V*%
X186675000Y-124030000D03*
%TO.N,EXT_MIC*%
X184135000Y-124030000D03*
%TD*%
D19*
%TO.N,GND*%
%TO.C,RN2*%
X144140000Y-113620000D03*
D15*
%TO.N,LIMIT1*%
X146680000Y-113620000D03*
%TO.N,LIMIT2*%
X149220000Y-113620000D03*
%TO.N,LIMIT3*%
X151760000Y-113620000D03*
%TO.N,LIMIT4*%
X154300000Y-113620000D03*
%TO.N,LIMIT5*%
X156840000Y-113620000D03*
%TO.N,LIMIT6*%
X159380000Y-113620000D03*
%TD*%
D20*
%TO.N,BATTERY_LEVEL*%
%TO.C,R7*%
X106172000Y-76962000D03*
D21*
%TO.N,POS*%
X111252000Y-76962000D03*
%TD*%
D18*
%TO.N,GND*%
%TO.C,SW3*%
X188690000Y-70950000D03*
%TO.N,SAVE*%
X188690000Y-66450000D03*
%TO.N,GND*%
X195190000Y-70950000D03*
%TO.N,SAVE*%
X195190000Y-66450000D03*
%TD*%
D12*
%TO.N,GND*%
%TO.C,J6*%
X189050000Y-108510000D03*
D13*
X189050000Y-111050000D03*
%TO.N,+5V*%
X186510000Y-108510000D03*
X186510000Y-111050000D03*
%TO.N,CS1_CLOCK*%
X183970000Y-108510000D03*
%TO.N,VU1_CLOCK*%
X183970000Y-111050000D03*
%TO.N,Net-(J6-Pad7)*%
X181430000Y-108510000D03*
%TO.N,Net-(J6-Pad8)*%
X181430000Y-111050000D03*
%TO.N,CS2_CLOCK*%
X178890000Y-108510000D03*
%TO.N,VU2_CLOCK*%
X178890000Y-111050000D03*
%TO.N,Net-(J6-Pad11)*%
X176350000Y-108510000D03*
%TO.N,Net-(J6-Pad12)*%
X176350000Y-111050000D03*
%TD*%
D12*
%TO.N,GND*%
%TO.C,J11*%
X188970000Y-84810000D03*
D13*
X188970000Y-87350000D03*
%TO.N,+5V*%
X186430000Y-84810000D03*
X186430000Y-87350000D03*
%TO.N,TX1*%
X183890000Y-84810000D03*
%TO.N,TX0*%
X183890000Y-87350000D03*
%TO.N,RX1*%
X181350000Y-84810000D03*
%TO.N,RX0*%
X181350000Y-87350000D03*
%TD*%
D12*
%TO.N,LIMIT1*%
%TO.C,J9*%
X176200000Y-94600000D03*
D13*
%TO.N,+5V*%
X176200000Y-92060000D03*
%TO.N,LIMIT2*%
X178740000Y-94600000D03*
%TO.N,+5V*%
X178740000Y-92060000D03*
%TO.N,LIMIT3*%
X181280000Y-94600000D03*
%TO.N,+5V*%
X181280000Y-92060000D03*
%TO.N,LIMIT4*%
X183820000Y-94600000D03*
%TO.N,+5V*%
X183820000Y-92060000D03*
%TO.N,LIMIT5*%
X186360000Y-94600000D03*
%TO.N,+5V*%
X186360000Y-92060000D03*
%TO.N,LIMIT6*%
X188900000Y-94600000D03*
%TO.N,+5V*%
X188900000Y-92060000D03*
%TD*%
D20*
%TO.N,NEG*%
%TO.C,R8*%
X126238000Y-77140000D03*
D21*
%TO.N,BATTERY_LEVEL*%
X121158000Y-77140000D03*
%TD*%
D19*
%TO.N,GND*%
%TO.C,RN1*%
X167820000Y-75850000D03*
D15*
%TO.N,JUMPER1*%
X165280000Y-75850000D03*
%TO.N,JUMPER2*%
X162740000Y-75850000D03*
%TO.N,JUMPER3*%
X160200000Y-75850000D03*
%TO.N,JUMPER4*%
X157660000Y-75850000D03*
%TO.N,JUMPER5*%
X155120000Y-75850000D03*
%TO.N,SAVE*%
X152580000Y-75850000D03*
%TD*%
D12*
%TO.N,+5V*%
%TO.C,J10*%
X181320000Y-79150000D03*
D13*
X181320000Y-76610000D03*
%TO.N,GND*%
X183860000Y-79150000D03*
X183860000Y-76610000D03*
%TO.N,SCL*%
X186400000Y-79150000D03*
X186400000Y-76610000D03*
%TO.N,SDA*%
X188940000Y-79150000D03*
X188940000Y-76610000D03*
%TD*%
D12*
%TO.N,GND*%
%TO.C,J5*%
X189040000Y-99130000D03*
D13*
X189040000Y-101670000D03*
%TO.N,+5V*%
X186500000Y-99130000D03*
X186500000Y-101670000D03*
%TO.N,LDP_CLOCK*%
X183960000Y-99130000D03*
%TO.N,MAINT_CLOCK*%
X183960000Y-101670000D03*
%TO.N,Net-(J5-Pad7)*%
X181420000Y-99130000D03*
%TO.N,Net-(J5-Pad8)*%
X181420000Y-101670000D03*
%TD*%
D18*
%TO.N,TX0*%
%TO.C,U3*%
X165755000Y-118455000D03*
%TO.N,RX0*%
X168295000Y-118455000D03*
%TO.N,OE*%
X165755000Y-115915000D03*
%TO.N,DP_DATA_IN*%
X168295000Y-115915000D03*
%TO.N,DP_CLOCK*%
X165765000Y-113375000D03*
%TO.N,DP_LOAD*%
X168295000Y-113375000D03*
%TO.N,unconnected-(U3-Pad6)*%
X165755000Y-110835000D03*
%TO.N,unconnected-(U3-Pad7)*%
X168295000Y-110835000D03*
%TO.N,unconnected-(U3-Pad8)*%
X165755000Y-108295000D03*
%TO.N,unconnected-(U3-Pad9)*%
X168295000Y-108295000D03*
%TO.N,unconnected-(U3-Pad10)*%
X165755000Y-105755000D03*
%TO.N,unconnected-(U3-Pad11)*%
X168295000Y-105755000D03*
%TO.N,VU_STROBE*%
X165755000Y-103215000D03*
%TO.N,VU_RESET*%
X168295000Y-103215000D03*
%TO.N,unconnected-(U3-Pad14)*%
X165755000Y-100675000D03*
%TO.N,unconnected-(U3-Pad15)*%
X168295000Y-100675000D03*
%TO.N,LOGIC_2560_RX*%
X165755000Y-98135000D03*
%TO.N,LOGIC_2560_TX*%
X168295000Y-98135000D03*
%TO.N,TX1*%
X165765000Y-95595000D03*
%TO.N,RX1*%
X168215000Y-95595000D03*
%TO.N,SDA*%
X165765000Y-93055000D03*
%TO.N,SCL*%
X168295000Y-93055000D03*
%TO.N,unconnected-(U3-Pad22)*%
X165755000Y-90515000D03*
%TO.N,unconnected-(U3-Pad23)*%
X168295000Y-90515000D03*
%TO.N,unconnected-(U3-Pad24)*%
X165755000Y-87975000D03*
%TO.N,unconnected-(U3-Pad25)*%
X168295000Y-87975000D03*
%TO.N,unconnected-(U3-Pad26)*%
X165755000Y-85435000D03*
%TO.N,unconnected-(U3-Pad27)*%
X168295000Y-85435000D03*
%TO.N,unconnected-(U3-Pad28)*%
X165755000Y-82895000D03*
%TO.N,LIMIT1*%
X168295000Y-82895000D03*
%TO.N,MAINT_DATA*%
X165755000Y-80355000D03*
%TO.N,LIMIT2*%
X168295000Y-80355000D03*
%TO.N,MAINT_CLOCK*%
X132735000Y-98135000D03*
%TO.N,LIMIT3*%
X135275000Y-98135000D03*
%TO.N,LDP_DATA*%
X132735000Y-95595000D03*
%TO.N,LIMIT4*%
X135275000Y-95595000D03*
%TO.N,LDP_CLOCK*%
X132735000Y-93055000D03*
%TO.N,LIMIT5*%
X135275000Y-93055000D03*
%TO.N,CS1_DATA*%
X132735000Y-90515000D03*
%TO.N,LIMIT6*%
X135275000Y-90515000D03*
%TO.N,CS1_CLOCK*%
X132735000Y-87975000D03*
%TO.N,SAVE*%
X135275000Y-87975000D03*
%TO.N,CS2_DATA*%
X132735000Y-85435000D03*
%TO.N,unconnected-(U3-Pad43)*%
X135275000Y-85435000D03*
%TO.N,CS2_CLOCK*%
X132735000Y-82895000D03*
%TO.N,JUMPER5*%
X135275000Y-82895000D03*
%TO.N,VU1_DATA*%
X132735000Y-80355000D03*
%TO.N,JUMPER4*%
X135275000Y-80355000D03*
%TO.N,VU1_CLOCK*%
X137825000Y-80355000D03*
%TO.N,JUMPER3*%
X137815000Y-82895000D03*
%TO.N,VU2_DATA*%
X140355000Y-80355000D03*
%TO.N,JUMPER2*%
X140355000Y-82895000D03*
%TO.N,VU2_CLOCK*%
X142895000Y-80355000D03*
%TO.N,JUMPER1*%
X142895000Y-82895000D03*
%TO.N,GND*%
X168295000Y-128615000D03*
X165755000Y-128615000D03*
%TO.N,+5V*%
X165755000Y-131155000D03*
X168295000Y-131155000D03*
%TO.N,unconnected-(U3-Pad72)*%
X165755000Y-126075000D03*
%TO.N,unconnected-(U3-Pad73)*%
X168295000Y-126075000D03*
%TO.N,unconnected-(U3-Pad74)*%
X168295000Y-123535000D03*
%TO.N,unconnected-(U3-Pad75)*%
X165755000Y-123535000D03*
D17*
%TO.N,N/C*%
X146805000Y-81425000D03*
X140515000Y-118455000D03*
D18*
%TO.N,unconnected-(U3-Pad104)*%
X165755000Y-120995000D03*
%TO.N,unconnected-(U3-Pad105)*%
X168295000Y-120995000D03*
%TO.N,SPECTRUM_LEFT*%
X132735000Y-118455000D03*
%TO.N,SPECTRUM_RIGHT*%
X135275000Y-118455000D03*
%TO.N,TRIM1*%
X132735000Y-115915000D03*
%TO.N,TRIM2*%
X135275000Y-115915000D03*
%TO.N,TRIM3*%
X132735000Y-113375000D03*
%TO.N,TRIM4*%
X135275000Y-113375000D03*
%TO.N,TRIM5*%
X132735000Y-110835000D03*
%TO.N,BATTERY_LEVEL*%
X135275000Y-110835000D03*
%TO.N,EXT_MIC*%
X132735000Y-108295000D03*
%TO.N,unconnected-(U3-Pad209)*%
X135275000Y-108295000D03*
%TO.N,unconnected-(U3-Pad210)*%
X132735000Y-105755000D03*
%TO.N,unconnected-(U3-Pad211)*%
X135275000Y-105755000D03*
%TO.N,unconnected-(U3-Pad212)*%
X132735000Y-103215000D03*
%TO.N,unconnected-(U3-Pad213)*%
X135275000Y-103215000D03*
%TO.N,unconnected-(U3-Pad214)*%
X132735000Y-100675000D03*
%TO.N,unconnected-(U3-Pad215)*%
X135275000Y-100675000D03*
%TD*%
D10*
%TO.N,POS*%
%TO.C,J12*%
X145625000Y-68170000D03*
D11*
%TO.N,NEG*%
X140545000Y-68170000D03*
%TD*%
D22*
%TO.N,MAINT_CLOCK*%
X191330000Y-97710000D02*
X191330000Y-112300000D01*
X171520000Y-113880000D02*
X169750000Y-112110000D01*
X181389520Y-97320480D02*
X190940480Y-97320480D01*
X182380000Y-103260000D02*
X180580000Y-103260000D01*
X179730000Y-102410000D02*
X179730000Y-98980000D01*
X189750000Y-113880000D02*
X171520000Y-113880000D01*
X180580000Y-103260000D02*
X179730000Y-102410000D01*
X145610000Y-112110000D02*
X138550000Y-105050000D01*
X138550000Y-100370000D02*
X137710000Y-99530000D01*
X191330000Y-112300000D02*
X189750000Y-113880000D01*
X134130000Y-99530000D02*
X132750000Y-98150000D01*
X190940480Y-97320480D02*
X191330000Y-97710000D01*
X169750000Y-112110000D02*
X145610000Y-112110000D01*
X183850000Y-101790000D02*
X182380000Y-103260000D01*
X179730000Y-98980000D02*
X181389520Y-97320480D01*
X137710000Y-99530000D02*
X134130000Y-99530000D01*
X138550000Y-105050000D02*
X138550000Y-100370000D01*
%TO.N,LDP_CLOCK*%
X139030000Y-104770000D02*
X139030000Y-100020000D01*
X169720000Y-109610000D02*
X143870000Y-109610000D01*
X183850000Y-99250000D02*
X185330000Y-97770000D01*
X185330000Y-97770000D02*
X190029022Y-97770000D01*
X185230000Y-111451010D02*
X183491010Y-113190000D01*
X190214511Y-97955489D02*
X190214511Y-102206499D01*
X135850000Y-96840000D02*
X134770000Y-96840000D01*
X134030000Y-96100000D02*
X134030000Y-94350000D01*
X190029022Y-97770000D02*
X190214511Y-97955489D01*
X134770000Y-96840000D02*
X134030000Y-96100000D01*
X190214511Y-102206499D02*
X185230000Y-107191010D01*
X143870000Y-109610000D02*
X139030000Y-104770000D01*
X139030000Y-100020000D02*
X135850000Y-96840000D01*
X173300000Y-113190000D02*
X169720000Y-109610000D01*
X134030000Y-94350000D02*
X132750000Y-93070000D01*
X185230000Y-107191010D02*
X185230000Y-111451010D01*
X183491010Y-113190000D02*
X173300000Y-113190000D01*
%TO.N,VU1_CLOCK*%
X148710000Y-78980000D02*
X149640000Y-79910000D01*
X139230000Y-78980000D02*
X148710000Y-78980000D01*
X149640000Y-82790000D02*
X153480000Y-86630000D01*
X170700000Y-86630000D02*
X173760000Y-89690000D01*
X149640000Y-79910000D02*
X149640000Y-82790000D01*
X182630000Y-107830000D02*
X182630000Y-109630000D01*
X173760000Y-89690000D02*
X173760000Y-98960000D01*
X182630000Y-109630000D02*
X183920000Y-110920000D01*
X137840000Y-80370000D02*
X139230000Y-78980000D01*
X153480000Y-86630000D02*
X170700000Y-86630000D01*
X173760000Y-98960000D02*
X182630000Y-107830000D01*
%TO.N,VU2_CLOCK*%
X172990000Y-99090000D02*
X180120000Y-106220000D01*
X142910000Y-80370000D02*
X142910000Y-80740000D01*
X151450000Y-89280000D02*
X172170000Y-89280000D01*
X172170000Y-89280000D02*
X172990000Y-90100000D01*
X180120000Y-106220000D02*
X180120000Y-109640000D01*
X142910000Y-80740000D02*
X151450000Y-89280000D01*
X180120000Y-109640000D02*
X178840000Y-110920000D01*
X172990000Y-90100000D02*
X172990000Y-99090000D01*
%TO.N,CS2_CLOCK*%
X172220000Y-95340000D02*
X172220000Y-99150000D01*
X132750000Y-82910000D02*
X133386462Y-82910000D01*
X172220000Y-99150000D02*
X178840000Y-105770000D01*
X144760000Y-84160000D02*
X151030000Y-90430000D01*
X171260000Y-94380000D02*
X172220000Y-95340000D01*
X133386462Y-82910000D02*
X134636462Y-84160000D01*
X160830000Y-94380000D02*
X171260000Y-94380000D01*
X151030000Y-90430000D02*
X156880000Y-90430000D01*
X178840000Y-105770000D02*
X178840000Y-108380000D01*
X156880000Y-90430000D02*
X160830000Y-94380000D01*
X134636462Y-84160000D02*
X144760000Y-84160000D01*
%TO.N,CS1_CLOCK*%
X156300000Y-78340000D02*
X162260000Y-84300000D01*
X130840000Y-79840000D02*
X132340000Y-78340000D01*
X132340000Y-78340000D02*
X156300000Y-78340000D01*
X174470000Y-89610000D02*
X174470000Y-98930000D01*
X130840000Y-86080000D02*
X130840000Y-79840000D01*
X162260000Y-84300000D02*
X169160000Y-84300000D01*
X132750000Y-87990000D02*
X130840000Y-86080000D01*
X169160000Y-84300000D02*
X174470000Y-89610000D01*
X174470000Y-98930000D02*
X183920000Y-108380000D01*
%TO.N,LIMIT1*%
X168310000Y-82910000D02*
X168770000Y-82910000D01*
X174919520Y-93179520D02*
X176375000Y-94635000D01*
X174919520Y-89059520D02*
X174919520Y-93179520D01*
X168770000Y-82910000D02*
X174919520Y-89059520D01*
%TO.N,LIMIT2*%
X168910000Y-80370000D02*
X168310000Y-80370000D01*
X180089511Y-93460489D02*
X180089511Y-91549511D01*
X178915000Y-94635000D02*
X180089511Y-93460489D01*
X180089511Y-91549511D02*
X168910000Y-80370000D01*
%TD*%
M02*
