%TF.GenerationSoftware,KiCad,Pcbnew,(6.0.0-0)*%
%TF.CreationDate,2022-03-14T14:23:58-04:00*%
%TF.ProjectId,BODY LED CONTROLLER,424f4459-204c-4454-9420-434f4e54524f,1.0*%
%TF.SameCoordinates,Original*%
%TF.FileFunction,Copper,L2,Inr*%
%TF.FilePolarity,Positive*%
%FSLAX46Y46*%
G04 Gerber Fmt 4.6, Leading zero omitted, Abs format (unit mm)*
G04 Created by KiCad (PCBNEW (6.0.0-0)) date 2022-03-14 14:23:58*
%MOMM*%
%LPD*%
G01*
G04 APERTURE LIST*
%TA.AperFunction,ComponentPad*%
%ADD10R,2.500000X2.500000*%
%TD*%
%TA.AperFunction,ComponentPad*%
%ADD11C,2.500000*%
%TD*%
%TA.AperFunction,ComponentPad*%
%ADD12R,1.700000X1.700000*%
%TD*%
%TA.AperFunction,ComponentPad*%
%ADD13O,1.700000X1.700000*%
%TD*%
%TA.AperFunction,ComponentPad*%
%ADD14C,1.600000*%
%TD*%
%TA.AperFunction,ComponentPad*%
%ADD15O,1.600000X1.600000*%
%TD*%
%TA.AperFunction,ComponentPad*%
%ADD16C,1.836000*%
%TD*%
%TA.AperFunction,ComponentPad*%
%ADD17C,2.600000*%
%TD*%
%TA.AperFunction,ComponentPad*%
%ADD18C,1.524000*%
%TD*%
%TA.AperFunction,ComponentPad*%
%ADD19R,1.600000X1.600000*%
%TD*%
%TA.AperFunction,ComponentPad*%
%ADD20C,1.400000*%
%TD*%
%TA.AperFunction,ComponentPad*%
%ADD21O,1.400000X1.400000*%
%TD*%
%TA.AperFunction,Conductor*%
%ADD22C,0.250000*%
%TD*%
G04 APERTURE END LIST*
D10*
%TO.N,GND*%
%TO.C,J1*%
X93790000Y-70645000D03*
D11*
%TO.N,+12V*%
X93790000Y-75725000D03*
%TD*%
D10*
%TO.N,GND*%
%TO.C,J2*%
X110180000Y-68280000D03*
D11*
%TO.N,+5V*%
X105100000Y-68280000D03*
%TD*%
D10*
%TO.N,GND*%
%TO.C,J3*%
X133045000Y-68280000D03*
D11*
%TO.N,+5V*%
X127965000Y-68280000D03*
%TD*%
D10*
%TO.N,GND*%
%TO.C,J4*%
X121615000Y-68254000D03*
D11*
%TO.N,+5V*%
X116535000Y-68254000D03*
%TD*%
D12*
%TO.N,GND*%
%TO.C,J7*%
X188976000Y-117334000D03*
D13*
%TO.N,+5V*%
X186436000Y-117334000D03*
%TO.N,DP_LOAD*%
X183896000Y-117334000D03*
%TO.N,DP_CLOCK*%
X181356000Y-117334000D03*
%TO.N,DP_DATA_IN*%
X178816000Y-117334000D03*
%TD*%
D12*
%TO.N,GND*%
%TO.C,J8*%
X188976000Y-130810000D03*
D13*
%TO.N,+5V*%
X186436000Y-130810000D03*
%TO.N,VU_STROBE*%
X183896000Y-130810000D03*
%TO.N,VU_RESET*%
X181356000Y-130810000D03*
%TO.N,SPECTRUM_LEFT*%
X178816000Y-130810000D03*
%TO.N,SPECTRUM_RIGHT*%
X176276000Y-130810000D03*
%TD*%
D14*
%TO.N,Net-(J5-Pad8)*%
%TO.C,R2*%
X155520000Y-104422000D03*
D15*
%TO.N,MAINT_DATA*%
X145360000Y-104422000D03*
%TD*%
D14*
%TO.N,Net-(J6-Pad7)*%
%TO.C,R3*%
X155520000Y-101344000D03*
D15*
%TO.N,CS1_DATA*%
X145360000Y-101344000D03*
%TD*%
D14*
%TO.N,Net-(J6-Pad11)*%
%TO.C,R4*%
X155520000Y-98216000D03*
D15*
%TO.N,CS2_DATA*%
X145360000Y-98216000D03*
%TD*%
D14*
%TO.N,Net-(J6-Pad8)*%
%TO.C,R5*%
X155520000Y-95068000D03*
D15*
%TO.N,VU1_DATA*%
X145360000Y-95068000D03*
%TD*%
D14*
%TO.N,Net-(J6-Pad12)*%
%TO.C,R6*%
X155520000Y-91970000D03*
D15*
%TO.N,VU2_DATA*%
X145360000Y-91970000D03*
%TD*%
D16*
%TO.N,unconnected-(U1-PadEN)*%
%TO.C,U1*%
X90780000Y-87130000D03*
%TO.N,GND*%
X90780000Y-92210000D03*
X90780000Y-94750000D03*
D11*
%TO.N,N/C*%
X91610000Y-83600000D03*
D17*
X107610000Y-97100000D03*
D16*
%TO.N,+12V*%
X90780000Y-89670000D03*
%TO.N,+5V*%
X90780000Y-97290000D03*
%TD*%
D18*
%TO.N,unconnected-(U2-Pad0)*%
%TO.C,U2*%
X105015400Y-130406600D03*
%TO.N,unconnected-(U2-Pad1)*%
X120205400Y-127866600D03*
%TO.N,unconnected-(U2-Pad2)*%
X102475400Y-130406600D03*
%TO.N,unconnected-(U2-Pad3)*%
X117715400Y-127866600D03*
%TO.N,unconnected-(U2-Pad4)*%
X107555400Y-130406600D03*
%TO.N,unconnected-(U2-Pad5)*%
X105015400Y-105000600D03*
%TO.N,unconnected-(U2-Pad18)*%
X112635400Y-105000600D03*
%TO.N,unconnected-(U2-Pad19)*%
X110095400Y-105000600D03*
%TO.N,unconnected-(U2-Pad21)*%
X112635400Y-127866600D03*
%TO.N,unconnected-(U2-Pad22)*%
X115175400Y-127866600D03*
%TO.N,unconnected-(U2-Pad23)*%
X107555400Y-105000600D03*
%TO.N,unconnected-(U2-Pad25)*%
X107555400Y-127866600D03*
%TO.N,unconnected-(U2-Pad26)*%
X115175400Y-105000600D03*
%TO.N,unconnected-(U2-Pad27)*%
X110095400Y-127866600D03*
%TO.N,unconnected-(U2-Pad32)*%
X112635400Y-130406600D03*
%TO.N,unconnected-(U2-Pad33)*%
X110095400Y-102460600D03*
%TO.N,unconnected-(U2-Pad34)*%
X107555400Y-102460600D03*
%TO.N,unconnected-(U2-Pad35)*%
X112635400Y-102460600D03*
%TO.N,unconnected-(U2-Pad39)*%
X115175400Y-102460600D03*
%TO.N,GND*%
X105015400Y-127866600D03*
X120255400Y-130406600D03*
X120255400Y-102460600D03*
%TO.N,+5V*%
X102475400Y-127866600D03*
%TO.N,3.3V*%
X102475400Y-105000600D03*
%TO.N,unconnected-(U2-Pad80)*%
X99935400Y-127866600D03*
%TO.N,unconnected-(U2-Pad81)*%
X97395400Y-127866600D03*
%TO.N,unconnected-(U2-Pad82)*%
X110095400Y-130406600D03*
%TO.N,unconnected-(U2-Pad83)*%
X99935400Y-130406600D03*
%TO.N,unconnected-(U2-Pad84)*%
X97395400Y-130406600D03*
%TO.N,unconnected-(U2-Pad85)*%
X120255400Y-105000600D03*
%TO.N,unconnected-(U2-Pad86)*%
X117715400Y-105000600D03*
%TO.N,unconnected-(U2-Pad87)*%
X99935400Y-105000600D03*
%TO.N,unconnected-(U2-Pad88)*%
X97395400Y-105000600D03*
%TO.N,unconnected-(U2-Pad89)*%
X117715400Y-102460600D03*
%TO.N,unconnected-(U2-Pad90)*%
X105015400Y-102460600D03*
%TO.N,unconnected-(U2-Pad91)*%
X102475400Y-102460600D03*
%TO.N,unconnected-(U2-Pad92)*%
X99935400Y-102460600D03*
%TO.N,unconnected-(U2-Pad93)*%
X97395400Y-102460600D03*
%TO.N,ESP_LOGIC_RX*%
X115175400Y-130406600D03*
%TO.N,ESP_LOGIC_TX*%
X117715400Y-130406600D03*
%TD*%
D14*
%TO.N,Net-(J5-Pad7)*%
%TO.C,R1*%
X155520000Y-107470000D03*
D15*
%TO.N,LDP_DATA*%
X145360000Y-107470000D03*
%TD*%
D18*
%TO.N,JUMPER5*%
%TO.C,SW1*%
X125476000Y-89091000D03*
%TO.N,JUMPER4*%
X122936000Y-89091000D03*
%TO.N,JUMPER3*%
X120396000Y-89091000D03*
%TO.N,JUMPER2*%
X117856000Y-89091000D03*
%TO.N,JUMPER1*%
X115316000Y-89091000D03*
%TO.N,+5V*%
X115316000Y-81089000D03*
X117856000Y-81089000D03*
X120396000Y-81089000D03*
X122936000Y-81089000D03*
X125476000Y-81089000D03*
%TD*%
%TO.N,GND*%
%TO.C,RV1*%
X156140000Y-67935000D03*
%TO.N,TRIM1*%
X153600000Y-65325000D03*
%TO.N,+5V*%
X151060000Y-67935000D03*
%TD*%
%TO.N,GND*%
%TO.C,RV2*%
X171015000Y-67935000D03*
%TO.N,TRIM3*%
X168475000Y-65325000D03*
%TO.N,+5V*%
X165935000Y-67935000D03*
%TD*%
%TO.N,GND*%
%TO.C,RV3*%
X185890000Y-67935000D03*
%TO.N,TRIM5*%
X183350000Y-65325000D03*
%TO.N,+5V*%
X180810000Y-67935000D03*
%TD*%
%TO.N,GND*%
%TO.C,RV4*%
X163577500Y-67935000D03*
%TO.N,TRIM2*%
X161037500Y-65325000D03*
%TO.N,+5V*%
X158497500Y-67935000D03*
%TD*%
%TO.N,GND*%
%TO.C,RV5*%
X178452500Y-67935000D03*
%TO.N,TRIM4*%
X175912500Y-65325000D03*
%TO.N,+5V*%
X173372500Y-67935000D03*
%TD*%
D12*
%TO.N,ESP_LOGIC_RX*%
%TO.C,J13*%
X118545000Y-96315000D03*
D13*
%TO.N,ESP_LOGIC_TX*%
X118545000Y-93775000D03*
%TO.N,LOGIC_2560_RX*%
X121085000Y-96315000D03*
%TO.N,LOGIC_2560_TX*%
X121085000Y-93775000D03*
%TD*%
D12*
%TO.N,GND*%
%TO.C,J13*%
X189215000Y-124030000D03*
D13*
%TO.N,+5V*%
X186675000Y-124030000D03*
%TO.N,EXT_MIC*%
X184135000Y-124030000D03*
%TD*%
D19*
%TO.N,GND*%
%TO.C,RN2*%
X144140000Y-113620000D03*
D15*
%TO.N,LIMIT1*%
X146680000Y-113620000D03*
%TO.N,LIMIT2*%
X149220000Y-113620000D03*
%TO.N,LIMIT3*%
X151760000Y-113620000D03*
%TO.N,LIMIT4*%
X154300000Y-113620000D03*
%TO.N,LIMIT5*%
X156840000Y-113620000D03*
%TO.N,LIMIT6*%
X159380000Y-113620000D03*
%TD*%
D20*
%TO.N,BATTERY_LEVEL*%
%TO.C,R7*%
X106172000Y-76962000D03*
D21*
%TO.N,POS*%
X111252000Y-76962000D03*
%TD*%
D18*
%TO.N,GND*%
%TO.C,SW3*%
X188690000Y-70950000D03*
%TO.N,SAVE*%
X188690000Y-66450000D03*
%TO.N,GND*%
X195190000Y-70950000D03*
%TO.N,SAVE*%
X195190000Y-66450000D03*
%TD*%
D12*
%TO.N,GND*%
%TO.C,J6*%
X189050000Y-108510000D03*
D13*
X189050000Y-111050000D03*
%TO.N,+5V*%
X186510000Y-108510000D03*
X186510000Y-111050000D03*
%TO.N,CS1_CLOCK*%
X183970000Y-108510000D03*
%TO.N,VU1_CLOCK*%
X183970000Y-111050000D03*
%TO.N,Net-(J6-Pad7)*%
X181430000Y-108510000D03*
%TO.N,Net-(J6-Pad8)*%
X181430000Y-111050000D03*
%TO.N,CS2_CLOCK*%
X178890000Y-108510000D03*
%TO.N,VU2_CLOCK*%
X178890000Y-111050000D03*
%TO.N,Net-(J6-Pad11)*%
X176350000Y-108510000D03*
%TO.N,Net-(J6-Pad12)*%
X176350000Y-111050000D03*
%TD*%
D12*
%TO.N,GND*%
%TO.C,J11*%
X188970000Y-84810000D03*
D13*
X188970000Y-87350000D03*
%TO.N,+5V*%
X186430000Y-84810000D03*
X186430000Y-87350000D03*
%TO.N,TX1*%
X183890000Y-84810000D03*
%TO.N,TX0*%
X183890000Y-87350000D03*
%TO.N,RX1*%
X181350000Y-84810000D03*
%TO.N,RX0*%
X181350000Y-87350000D03*
%TD*%
D12*
%TO.N,LIMIT1*%
%TO.C,J9*%
X176200000Y-94600000D03*
D13*
%TO.N,+5V*%
X176200000Y-92060000D03*
%TO.N,LIMIT2*%
X178740000Y-94600000D03*
%TO.N,+5V*%
X178740000Y-92060000D03*
%TO.N,LIMIT3*%
X181280000Y-94600000D03*
%TO.N,+5V*%
X181280000Y-92060000D03*
%TO.N,LIMIT4*%
X183820000Y-94600000D03*
%TO.N,+5V*%
X183820000Y-92060000D03*
%TO.N,LIMIT5*%
X186360000Y-94600000D03*
%TO.N,+5V*%
X186360000Y-92060000D03*
%TO.N,LIMIT6*%
X188900000Y-94600000D03*
%TO.N,+5V*%
X188900000Y-92060000D03*
%TD*%
D20*
%TO.N,NEG*%
%TO.C,R8*%
X126238000Y-77140000D03*
D21*
%TO.N,BATTERY_LEVEL*%
X121158000Y-77140000D03*
%TD*%
D19*
%TO.N,GND*%
%TO.C,RN1*%
X167820000Y-75850000D03*
D15*
%TO.N,JUMPER1*%
X165280000Y-75850000D03*
%TO.N,JUMPER2*%
X162740000Y-75850000D03*
%TO.N,JUMPER3*%
X160200000Y-75850000D03*
%TO.N,JUMPER4*%
X157660000Y-75850000D03*
%TO.N,JUMPER5*%
X155120000Y-75850000D03*
%TO.N,SAVE*%
X152580000Y-75850000D03*
%TD*%
D12*
%TO.N,+5V*%
%TO.C,J10*%
X181320000Y-79150000D03*
D13*
X181320000Y-76610000D03*
%TO.N,GND*%
X183860000Y-79150000D03*
X183860000Y-76610000D03*
%TO.N,SCL*%
X186400000Y-79150000D03*
X186400000Y-76610000D03*
%TO.N,SDA*%
X188940000Y-79150000D03*
X188940000Y-76610000D03*
%TD*%
D12*
%TO.N,GND*%
%TO.C,J5*%
X189040000Y-99130000D03*
D13*
X189040000Y-101670000D03*
%TO.N,+5V*%
X186500000Y-99130000D03*
X186500000Y-101670000D03*
%TO.N,LDP_CLOCK*%
X183960000Y-99130000D03*
%TO.N,MAINT_CLOCK*%
X183960000Y-101670000D03*
%TO.N,Net-(J5-Pad7)*%
X181420000Y-99130000D03*
%TO.N,Net-(J5-Pad8)*%
X181420000Y-101670000D03*
%TD*%
D18*
%TO.N,TX0*%
%TO.C,U3*%
X165755000Y-118455000D03*
%TO.N,RX0*%
X168295000Y-118455000D03*
%TO.N,OE*%
X165755000Y-115915000D03*
%TO.N,DP_DATA_IN*%
X168295000Y-115915000D03*
%TO.N,DP_CLOCK*%
X165765000Y-113375000D03*
%TO.N,DP_LOAD*%
X168295000Y-113375000D03*
%TO.N,unconnected-(U3-Pad6)*%
X165755000Y-110835000D03*
%TO.N,unconnected-(U3-Pad7)*%
X168295000Y-110835000D03*
%TO.N,unconnected-(U3-Pad8)*%
X165755000Y-108295000D03*
%TO.N,unconnected-(U3-Pad9)*%
X168295000Y-108295000D03*
%TO.N,unconnected-(U3-Pad10)*%
X165755000Y-105755000D03*
%TO.N,unconnected-(U3-Pad11)*%
X168295000Y-105755000D03*
%TO.N,VU_STROBE*%
X165755000Y-103215000D03*
%TO.N,VU_RESET*%
X168295000Y-103215000D03*
%TO.N,unconnected-(U3-Pad14)*%
X165755000Y-100675000D03*
%TO.N,unconnected-(U3-Pad15)*%
X168295000Y-100675000D03*
%TO.N,LOGIC_2560_RX*%
X165755000Y-98135000D03*
%TO.N,LOGIC_2560_TX*%
X168295000Y-98135000D03*
%TO.N,TX1*%
X165765000Y-95595000D03*
%TO.N,RX1*%
X168215000Y-95595000D03*
%TO.N,SDA*%
X165765000Y-93055000D03*
%TO.N,SCL*%
X168295000Y-93055000D03*
%TO.N,unconnected-(U3-Pad22)*%
X165755000Y-90515000D03*
%TO.N,unconnected-(U3-Pad23)*%
X168295000Y-90515000D03*
%TO.N,unconnected-(U3-Pad24)*%
X165755000Y-87975000D03*
%TO.N,unconnected-(U3-Pad25)*%
X168295000Y-87975000D03*
%TO.N,unconnected-(U3-Pad26)*%
X165755000Y-85435000D03*
%TO.N,unconnected-(U3-Pad27)*%
X168295000Y-85435000D03*
%TO.N,unconnected-(U3-Pad28)*%
X165755000Y-82895000D03*
%TO.N,LIMIT1*%
X168295000Y-82895000D03*
%TO.N,MAINT_DATA*%
X165755000Y-80355000D03*
%TO.N,LIMIT2*%
X168295000Y-80355000D03*
%TO.N,MAINT_CLOCK*%
X132735000Y-98135000D03*
%TO.N,LIMIT3*%
X135275000Y-98135000D03*
%TO.N,LDP_DATA*%
X132735000Y-95595000D03*
%TO.N,LIMIT4*%
X135275000Y-95595000D03*
%TO.N,LDP_CLOCK*%
X132735000Y-93055000D03*
%TO.N,LIMIT5*%
X135275000Y-93055000D03*
%TO.N,CS1_DATA*%
X132735000Y-90515000D03*
%TO.N,LIMIT6*%
X135275000Y-90515000D03*
%TO.N,CS1_CLOCK*%
X132735000Y-87975000D03*
%TO.N,SAVE*%
X135275000Y-87975000D03*
%TO.N,CS2_DATA*%
X132735000Y-85435000D03*
%TO.N,unconnected-(U3-Pad43)*%
X135275000Y-85435000D03*
%TO.N,CS2_CLOCK*%
X132735000Y-82895000D03*
%TO.N,JUMPER5*%
X135275000Y-82895000D03*
%TO.N,VU1_DATA*%
X132735000Y-80355000D03*
%TO.N,JUMPER4*%
X135275000Y-80355000D03*
%TO.N,VU1_CLOCK*%
X137825000Y-80355000D03*
%TO.N,JUMPER3*%
X137815000Y-82895000D03*
%TO.N,VU2_DATA*%
X140355000Y-80355000D03*
%TO.N,JUMPER2*%
X140355000Y-82895000D03*
%TO.N,VU2_CLOCK*%
X142895000Y-80355000D03*
%TO.N,JUMPER1*%
X142895000Y-82895000D03*
%TO.N,GND*%
X168295000Y-128615000D03*
X165755000Y-128615000D03*
%TO.N,+5V*%
X165755000Y-131155000D03*
X168295000Y-131155000D03*
%TO.N,unconnected-(U3-Pad72)*%
X165755000Y-126075000D03*
%TO.N,unconnected-(U3-Pad73)*%
X168295000Y-126075000D03*
%TO.N,unconnected-(U3-Pad74)*%
X168295000Y-123535000D03*
%TO.N,unconnected-(U3-Pad75)*%
X165755000Y-123535000D03*
D17*
%TO.N,N/C*%
X146805000Y-81425000D03*
X140515000Y-118455000D03*
D18*
%TO.N,unconnected-(U3-Pad104)*%
X165755000Y-120995000D03*
%TO.N,unconnected-(U3-Pad105)*%
X168295000Y-120995000D03*
%TO.N,SPECTRUM_LEFT*%
X132735000Y-118455000D03*
%TO.N,SPECTRUM_RIGHT*%
X135275000Y-118455000D03*
%TO.N,TRIM1*%
X132735000Y-115915000D03*
%TO.N,TRIM2*%
X135275000Y-115915000D03*
%TO.N,TRIM3*%
X132735000Y-113375000D03*
%TO.N,TRIM4*%
X135275000Y-113375000D03*
%TO.N,TRIM5*%
X132735000Y-110835000D03*
%TO.N,BATTERY_LEVEL*%
X135275000Y-110835000D03*
%TO.N,EXT_MIC*%
X132735000Y-108295000D03*
%TO.N,unconnected-(U3-Pad209)*%
X135275000Y-108295000D03*
%TO.N,unconnected-(U3-Pad210)*%
X132735000Y-105755000D03*
%TO.N,unconnected-(U3-Pad211)*%
X135275000Y-105755000D03*
%TO.N,unconnected-(U3-Pad212)*%
X132735000Y-103215000D03*
%TO.N,unconnected-(U3-Pad213)*%
X135275000Y-103215000D03*
%TO.N,unconnected-(U3-Pad214)*%
X132735000Y-100675000D03*
%TO.N,unconnected-(U3-Pad215)*%
X135275000Y-100675000D03*
%TD*%
D10*
%TO.N,POS*%
%TO.C,J12*%
X145625000Y-68170000D03*
D11*
%TO.N,NEG*%
X140545000Y-68170000D03*
%TD*%
D22*
%TO.N,+5V*%
X180810000Y-67935000D02*
X178525000Y-70220000D01*
X178525000Y-70220000D02*
X175657500Y-70220000D01*
X175657500Y-70220000D02*
X173372500Y-67935000D01*
%TO.N,SPECTRUM_RIGHT*%
X146540000Y-129970000D02*
X150410000Y-133840000D01*
X150410000Y-133840000D02*
X174760000Y-133840000D01*
X174760000Y-133840000D02*
X176276000Y-132324000D01*
X135290000Y-118470000D02*
X146540000Y-129720000D01*
X176276000Y-132324000D02*
X176276000Y-130810000D01*
X146540000Y-129720000D02*
X146540000Y-129970000D01*
%TO.N,SPECTRUM_LEFT*%
X177320000Y-134780000D02*
X178816000Y-133284000D01*
X132750000Y-118470000D02*
X149060000Y-134780000D01*
X149060000Y-134780000D02*
X177320000Y-134780000D01*
X178816000Y-133284000D02*
X178816000Y-130810000D01*
%TO.N,RX0*%
X191640000Y-89570000D02*
X183445000Y-89570000D01*
X194540000Y-108482000D02*
X194540000Y-92470000D01*
X168250000Y-118530000D02*
X172421520Y-114358480D01*
X172421520Y-114358480D02*
X188663520Y-114358480D01*
X188663520Y-114358480D02*
X194540000Y-108482000D01*
X194540000Y-92470000D02*
X191640000Y-89570000D01*
X183445000Y-89570000D02*
X181300000Y-87425000D01*
%TO.N,TX0*%
X168943489Y-119556511D02*
X173692000Y-114808000D01*
X189230000Y-114808000D02*
X196030000Y-108008000D01*
X166856511Y-119556511D02*
X168943489Y-119556511D01*
X196030000Y-92970000D02*
X192180480Y-89120480D01*
X196030000Y-108008000D02*
X196030000Y-92970000D01*
X165770000Y-118470000D02*
X166856511Y-119556511D01*
X173692000Y-114808000D02*
X189230000Y-114808000D01*
X185535480Y-89120480D02*
X183840000Y-87425000D01*
X192180480Y-89120480D02*
X185535480Y-89120480D01*
%TO.N,MAINT_DATA*%
X152680000Y-93200000D02*
X150970000Y-94910000D01*
X150970000Y-98812000D02*
X145360000Y-104422000D01*
X165770000Y-80370000D02*
X165410000Y-80370000D01*
X158460000Y-93200000D02*
X157560000Y-93200000D01*
X150970000Y-94910000D02*
X150970000Y-98812000D01*
X162420000Y-83360000D02*
X162420000Y-89240000D01*
X157600000Y-93200000D02*
X152680000Y-93200000D01*
X165410000Y-80370000D02*
X162420000Y-83360000D01*
X162420000Y-89240000D02*
X158460000Y-93200000D01*
%TO.N,JUMPER5*%
X131318000Y-79756000D02*
X136994000Y-74080000D01*
X136994000Y-74080000D02*
X153320000Y-74080000D01*
X125476000Y-89091000D02*
X128079000Y-89091000D01*
X153320000Y-74080000D02*
X155150000Y-75910000D01*
X128079000Y-89091000D02*
X131318000Y-85852000D01*
X131318000Y-85852000D02*
X131318000Y-79756000D01*
%TO.N,JUMPER4*%
X130556000Y-79882282D02*
X137098282Y-73340000D01*
X122936000Y-89091000D02*
X124397000Y-87630000D01*
X128524000Y-87630000D02*
X130556000Y-85598000D01*
X137098282Y-73340000D02*
X155120000Y-73340000D01*
X155120000Y-73340000D02*
X157690000Y-75910000D01*
X130556000Y-85598000D02*
X130556000Y-79882282D01*
X124397000Y-87630000D02*
X128524000Y-87630000D01*
%TO.N,JUMPER3*%
X129794000Y-79502000D02*
X136576000Y-72720000D01*
X157040000Y-72720000D02*
X160230000Y-75910000D01*
X122619000Y-86868000D02*
X128143000Y-86868000D01*
X136576000Y-72720000D02*
X157040000Y-72720000D01*
X120396000Y-89091000D02*
X122619000Y-86868000D01*
X129794000Y-85217000D02*
X129794000Y-79502000D01*
X128143000Y-86868000D02*
X129794000Y-85217000D01*
%TO.N,JUMPER2*%
X158980000Y-72120000D02*
X162770000Y-75910000D01*
X129032000Y-79248000D02*
X136160000Y-72120000D01*
X117856000Y-89091000D02*
X120841000Y-86106000D01*
X136160000Y-72120000D02*
X158980000Y-72120000D01*
X120841000Y-86106000D02*
X128016000Y-86106000D01*
X129032000Y-85090000D02*
X129032000Y-79248000D01*
X128016000Y-86106000D02*
X129032000Y-85090000D01*
%TO.N,JUMPER1*%
X127762000Y-85344000D02*
X128270000Y-84836000D01*
X128270000Y-84836000D02*
X128270000Y-78994000D01*
X162990000Y-73590000D02*
X165310000Y-75910000D01*
X135904000Y-71360000D02*
X161450000Y-71360000D01*
X161450000Y-71360000D02*
X162990000Y-72900000D01*
X128270000Y-78994000D02*
X135904000Y-71360000D01*
X162990000Y-72900000D02*
X162990000Y-73590000D01*
X115316000Y-89091000D02*
X119063000Y-85344000D01*
X119063000Y-85344000D02*
X127762000Y-85344000D01*
%TO.N,SAVE*%
X146680000Y-84520000D02*
X140590000Y-84520000D01*
X137120000Y-87990000D02*
X135290000Y-87990000D01*
X152610000Y-78590000D02*
X146680000Y-84520000D01*
X140590000Y-84520000D02*
X137120000Y-87990000D01*
X152610000Y-75910000D02*
X152610000Y-78590000D01*
%TO.N,EXT_MIC*%
X164380000Y-122330000D02*
X159940000Y-117890000D01*
X134100000Y-109660000D02*
X132750000Y-108310000D01*
X136720000Y-110470000D02*
X135910000Y-109660000D01*
X142860000Y-117890000D02*
X136720000Y-111750000D01*
X136720000Y-111750000D02*
X136720000Y-110470000D01*
X135910000Y-109660000D02*
X134100000Y-109660000D01*
X182885000Y-122330000D02*
X164380000Y-122330000D01*
X159940000Y-117890000D02*
X142860000Y-117890000D01*
X183895000Y-123340000D02*
X182885000Y-122330000D01*
%TO.N,Net-(J6-Pad11)*%
X175260000Y-107340000D02*
X176300000Y-108380000D01*
X155290000Y-98246000D02*
X156874000Y-99830000D01*
X169280000Y-99450000D02*
X175260000Y-105430000D01*
X164250000Y-99830000D02*
X164630000Y-99450000D01*
X164630000Y-99450000D02*
X169280000Y-99450000D01*
X156874000Y-99830000D02*
X164250000Y-99830000D01*
X175260000Y-105430000D02*
X175260000Y-107340000D01*
%TO.N,LIMIT3*%
X139940000Y-98290000D02*
X135040000Y-98290000D01*
X146549489Y-99340511D02*
X140990511Y-99340511D01*
X143570480Y-115230480D02*
X150489520Y-115230480D01*
X170713802Y-79229520D02*
X162830480Y-79229520D01*
X150489520Y-115230480D02*
X151920000Y-113800000D01*
X162830480Y-79229520D02*
X149350000Y-92710000D01*
X140760000Y-112420000D02*
X143570480Y-115230480D01*
X149350000Y-92710000D02*
X149350000Y-96540000D01*
X135040000Y-98290000D02*
X140760000Y-104010000D01*
X175230000Y-96510000D02*
X172700000Y-93980000D01*
X181455000Y-94635000D02*
X179580000Y-96510000D01*
X179580000Y-96510000D02*
X175230000Y-96510000D01*
X140990511Y-99340511D02*
X139940000Y-98290000D01*
X172700000Y-93980000D02*
X172700000Y-81215718D01*
X149350000Y-96540000D02*
X146549489Y-99340511D01*
X140760000Y-104010000D02*
X140760000Y-112420000D01*
X172700000Y-81215718D02*
X170713802Y-79229520D01*
%TO.N,LIMIT4*%
X148740000Y-92350000D02*
X162310000Y-78780000D01*
X136725000Y-95595000D02*
X137770000Y-96640000D01*
X148740000Y-94080000D02*
X148740000Y-92350000D01*
X162310000Y-78780000D02*
X170900000Y-78780000D01*
X146180000Y-96640000D02*
X148740000Y-94080000D01*
X179240978Y-93240000D02*
X182460000Y-93240000D01*
X135870000Y-101940000D02*
X134630000Y-101940000D01*
X140190000Y-106260000D02*
X135870000Y-101940000D01*
X140190000Y-112650000D02*
X140190000Y-106260000D01*
X153230000Y-115030000D02*
X153230000Y-115680000D01*
X154460000Y-113800000D02*
X153230000Y-115030000D01*
X173320000Y-91470000D02*
X175084511Y-93234511D01*
X170900000Y-78780000D02*
X173320000Y-81200000D01*
X173320000Y-81200000D02*
X173320000Y-91470000D01*
X137770000Y-96640000D02*
X146180000Y-96640000D01*
X179235489Y-93234511D02*
X179240978Y-93240000D01*
X143220000Y-115680000D02*
X140190000Y-112650000D01*
X135275000Y-95595000D02*
X136725000Y-95595000D01*
X153230000Y-115680000D02*
X143220000Y-115680000D01*
X133990000Y-101300000D02*
X133990000Y-96880000D01*
X133990000Y-96880000D02*
X135275000Y-95595000D01*
X175084511Y-93234511D02*
X179235489Y-93234511D01*
X182460000Y-93240000D02*
X183820000Y-94600000D01*
X134630000Y-101940000D02*
X133990000Y-101300000D01*
%TO.N,LIMIT5*%
X175950000Y-83194282D02*
X175950000Y-86730000D01*
X132120000Y-94390000D02*
X133940000Y-94390000D01*
X156070000Y-115390000D02*
X155220000Y-116240000D01*
X132613440Y-104630000D02*
X131400000Y-103416560D01*
X133940000Y-94390000D02*
X135275000Y-93055000D01*
X131400000Y-95110000D02*
X132120000Y-94390000D01*
X131400000Y-103416560D02*
X131400000Y-95110000D01*
X135275000Y-93055000D02*
X135810000Y-93590000D01*
X143120000Y-116240000D02*
X139550000Y-112670000D01*
X184530000Y-90750000D02*
X185110000Y-91330000D01*
X139550000Y-108170000D02*
X136010000Y-104630000D01*
X175950000Y-86730000D02*
X179970000Y-90750000D01*
X136010000Y-104630000D02*
X132613440Y-104630000D01*
X179970000Y-90750000D02*
X184530000Y-90750000D01*
X157000000Y-113800000D02*
X156070000Y-114730000D01*
X139550000Y-112670000D02*
X139550000Y-108170000D01*
X135810000Y-93590000D02*
X146530000Y-93590000D01*
X171055718Y-78300000D02*
X175950000Y-83194282D01*
X146530000Y-93590000D02*
X161820000Y-78300000D01*
X185110000Y-91330000D02*
X185110000Y-93210000D01*
X156070000Y-114730000D02*
X156070000Y-115390000D01*
X185110000Y-93210000D02*
X186535000Y-94635000D01*
X161820000Y-78300000D02*
X171055718Y-78300000D01*
X155220000Y-116240000D02*
X143120000Y-116240000D01*
%TO.N,LIMIT6*%
X188881010Y-90240000D02*
X180330000Y-90240000D01*
X171530480Y-77850480D02*
X161633803Y-77850480D01*
X135290000Y-90530000D02*
X133980000Y-91840000D01*
X138430000Y-112250000D02*
X143430000Y-117250000D01*
X189075000Y-94635000D02*
X190249511Y-93460489D01*
X143430000Y-117250000D02*
X156090000Y-117250000D01*
X180330000Y-90240000D02*
X176610000Y-86520000D01*
X176610000Y-82930000D02*
X171530480Y-77850480D01*
X176610000Y-86520000D02*
X176610000Y-82930000D01*
X156090000Y-117250000D02*
X159540000Y-113800000D01*
X130790000Y-105370000D02*
X132380000Y-106960000D01*
X138430000Y-108640000D02*
X138430000Y-112250000D01*
X190249511Y-91608501D02*
X188881010Y-90240000D01*
X161633803Y-77850480D02*
X148954282Y-90530000D01*
X190249511Y-93460489D02*
X190249511Y-91608501D01*
X133980000Y-91840000D02*
X132040000Y-91840000D01*
X132040000Y-91840000D02*
X130790000Y-93090000D01*
X132380000Y-106960000D02*
X136750000Y-106960000D01*
X148954282Y-90530000D02*
X135290000Y-90530000D01*
X130790000Y-93090000D02*
X130790000Y-105370000D01*
X136750000Y-106960000D02*
X138430000Y-108640000D01*
%TO.N,Net-(J5-Pad7)*%
X151500000Y-104770000D02*
X154200000Y-107470000D01*
X153680000Y-93730000D02*
X151500000Y-95910000D01*
X151500000Y-95910000D02*
X151500000Y-104770000D01*
X157270000Y-94290000D02*
X156710000Y-93730000D01*
X156710000Y-93730000D02*
X153680000Y-93730000D01*
X174010000Y-99250000D02*
X169050000Y-94290000D01*
X169050000Y-94290000D02*
X157270000Y-94290000D01*
X181310000Y-99250000D02*
X174010000Y-99250000D01*
X154200000Y-107470000D02*
X155520000Y-107470000D01*
%TO.N,Net-(J6-Pad7)*%
X180030000Y-109730000D02*
X181380000Y-108380000D01*
X156906000Y-102150000D02*
X165283440Y-102150000D01*
X174660000Y-108620000D02*
X175770000Y-109730000D01*
X175770000Y-109730000D02*
X180030000Y-109730000D01*
X170368489Y-102128489D02*
X174660000Y-106420000D01*
X155290000Y-100534000D02*
X156906000Y-102150000D01*
X174660000Y-106420000D02*
X174660000Y-108620000D01*
X165304951Y-102128489D02*
X170368489Y-102128489D01*
X165283440Y-102150000D02*
X165304951Y-102128489D01*
%TO.N,Net-(J5-Pad8)*%
X175230000Y-101790000D02*
X170390000Y-96950000D01*
X154370000Y-96560000D02*
X152210000Y-98720000D01*
X152210000Y-98720000D02*
X152210000Y-103070000D01*
X170390000Y-96950000D02*
X158390000Y-96950000D01*
X158000000Y-96560000D02*
X154370000Y-96560000D01*
X158390000Y-96950000D02*
X158000000Y-96560000D01*
X181310000Y-101790000D02*
X175230000Y-101790000D01*
X152210000Y-103070000D02*
X153562000Y-104422000D01*
X153562000Y-104422000D02*
X155520000Y-104422000D01*
%TD*%
M02*
