%TF.GenerationSoftware,KiCad,Pcbnew,(6.0.0-0)*%
%TF.CreationDate,2022-03-14T14:24:00-04:00*%
%TF.ProjectId,BODY LED CONTROLLER,424f4459-204c-4454-9420-434f4e54524f,1.0*%
%TF.SameCoordinates,Original*%
%TF.FileFunction,Soldermask,Top*%
%TF.FilePolarity,Negative*%
%FSLAX46Y46*%
G04 Gerber Fmt 4.6, Leading zero omitted, Abs format (unit mm)*
G04 Created by KiCad (PCBNEW (6.0.0-0)) date 2022-03-14 14:24:00*
%MOMM*%
%LPD*%
G01*
G04 APERTURE LIST*
%ADD10R,2.500000X2.500000*%
%ADD11C,2.500000*%
%ADD12R,1.700000X1.700000*%
%ADD13O,1.700000X1.700000*%
%ADD14C,1.600000*%
%ADD15O,1.600000X1.600000*%
%ADD16C,2.039200*%
%ADD17C,2.703200*%
%ADD18C,2.803200*%
%ADD19C,1.524000*%
%ADD20C,3.200000*%
%ADD21R,1.600000X1.600000*%
%ADD22C,1.400000*%
%ADD23O,1.400000X1.400000*%
%ADD24C,2.600000*%
G04 APERTURE END LIST*
D10*
%TO.C,J1*%
X93790000Y-70645000D03*
D11*
X93790000Y-75725000D03*
%TD*%
D10*
%TO.C,J2*%
X110180000Y-68280000D03*
D11*
X105100000Y-68280000D03*
%TD*%
D10*
%TO.C,J3*%
X133045000Y-68280000D03*
D11*
X127965000Y-68280000D03*
%TD*%
D10*
%TO.C,J4*%
X121615000Y-68254000D03*
D11*
X116535000Y-68254000D03*
%TD*%
D12*
%TO.C,J7*%
X188976000Y-117334000D03*
D13*
X186436000Y-117334000D03*
X183896000Y-117334000D03*
X181356000Y-117334000D03*
X178816000Y-117334000D03*
%TD*%
D12*
%TO.C,J8*%
X188976000Y-130810000D03*
D13*
X186436000Y-130810000D03*
X183896000Y-130810000D03*
X181356000Y-130810000D03*
X178816000Y-130810000D03*
X176276000Y-130810000D03*
%TD*%
D14*
%TO.C,R2*%
X155520000Y-104422000D03*
D15*
X145360000Y-104422000D03*
%TD*%
D14*
%TO.C,R3*%
X155520000Y-101344000D03*
D15*
X145360000Y-101344000D03*
%TD*%
D14*
%TO.C,R4*%
X155520000Y-98216000D03*
D15*
X145360000Y-98216000D03*
%TD*%
D14*
%TO.C,R5*%
X155520000Y-95068000D03*
D15*
X145360000Y-95068000D03*
%TD*%
D14*
%TO.C,R6*%
X155520000Y-91970000D03*
D15*
X145360000Y-91970000D03*
%TD*%
D16*
%TO.C,U1*%
X90780000Y-87130000D03*
X90780000Y-92210000D03*
X90780000Y-94750000D03*
D17*
X91610000Y-83600000D03*
D18*
X107610000Y-97100000D03*
D16*
X90780000Y-89670000D03*
X90780000Y-97290000D03*
%TD*%
D19*
%TO.C,U2*%
X105015400Y-130406600D03*
X120205400Y-127866600D03*
X102475400Y-130406600D03*
X117715400Y-127866600D03*
X107555400Y-130406600D03*
X105015400Y-105000600D03*
X112635400Y-105000600D03*
X110095400Y-105000600D03*
X112635400Y-127866600D03*
X115175400Y-127866600D03*
X107555400Y-105000600D03*
X107555400Y-127866600D03*
X115175400Y-105000600D03*
X110095400Y-127866600D03*
X112635400Y-130406600D03*
X110095400Y-102460600D03*
X107555400Y-102460600D03*
X112635400Y-102460600D03*
X115175400Y-102460600D03*
X105015400Y-127866600D03*
X120255400Y-130406600D03*
X120255400Y-102460600D03*
X102475400Y-127866600D03*
X102475400Y-105000600D03*
X99935400Y-127866600D03*
X97395400Y-127866600D03*
X110095400Y-130406600D03*
X99935400Y-130406600D03*
X97395400Y-130406600D03*
X120255400Y-105000600D03*
X117715400Y-105000600D03*
X99935400Y-105000600D03*
X97395400Y-105000600D03*
X117715400Y-102460600D03*
X105015400Y-102460600D03*
X102475400Y-102460600D03*
X99935400Y-102460600D03*
X97395400Y-102460600D03*
X115175400Y-130406600D03*
X117715400Y-130406600D03*
%TD*%
D14*
%TO.C,R1*%
X155520000Y-107470000D03*
D15*
X145360000Y-107470000D03*
%TD*%
D19*
%TO.C,SW1*%
X125476000Y-89091000D03*
X122936000Y-89091000D03*
X120396000Y-89091000D03*
X117856000Y-89091000D03*
X115316000Y-89091000D03*
X115316000Y-81089000D03*
X117856000Y-81089000D03*
X120396000Y-81089000D03*
X122936000Y-81089000D03*
X125476000Y-81089000D03*
%TD*%
%TO.C,RV1*%
X156140000Y-67935000D03*
X153600000Y-65325000D03*
X151060000Y-67935000D03*
%TD*%
%TO.C,RV2*%
X171015000Y-67935000D03*
X168475000Y-65325000D03*
X165935000Y-67935000D03*
%TD*%
%TO.C,RV3*%
X185890000Y-67935000D03*
X183350000Y-65325000D03*
X180810000Y-67935000D03*
%TD*%
%TO.C,RV4*%
X163577500Y-67935000D03*
X161037500Y-65325000D03*
X158497500Y-67935000D03*
%TD*%
%TO.C,RV5*%
X178452500Y-67935000D03*
X175912500Y-65325000D03*
X173372500Y-67935000D03*
%TD*%
D12*
%TO.C,J13*%
X118545000Y-96315000D03*
D13*
X118545000Y-93775000D03*
X121085000Y-96315000D03*
X121085000Y-93775000D03*
%TD*%
D12*
%TO.C,J13*%
X189215000Y-124030000D03*
D13*
X186675000Y-124030000D03*
X184135000Y-124030000D03*
%TD*%
D20*
%TO.C,REF\u002A\u002A*%
X196480000Y-136460000D03*
%TD*%
D21*
%TO.C,RN2*%
X144140000Y-113620000D03*
D15*
X146680000Y-113620000D03*
X149220000Y-113620000D03*
X151760000Y-113620000D03*
X154300000Y-113620000D03*
X156840000Y-113620000D03*
X159380000Y-113620000D03*
%TD*%
D20*
%TO.C,REF\u002A\u002A*%
X89662000Y-63500000D03*
%TD*%
D22*
%TO.C,R7*%
X106172000Y-76962000D03*
D23*
X111252000Y-76962000D03*
%TD*%
D19*
%TO.C,SW3*%
X188690000Y-70950000D03*
X188690000Y-66450000D03*
X195190000Y-70950000D03*
X195190000Y-66450000D03*
%TD*%
D12*
%TO.C,J6*%
X189050000Y-108510000D03*
D13*
X189050000Y-111050000D03*
X186510000Y-108510000D03*
X186510000Y-111050000D03*
X183970000Y-108510000D03*
X183970000Y-111050000D03*
X181430000Y-108510000D03*
X181430000Y-111050000D03*
X178890000Y-108510000D03*
X178890000Y-111050000D03*
X176350000Y-108510000D03*
X176350000Y-111050000D03*
%TD*%
D12*
%TO.C,J11*%
X188970000Y-84810000D03*
D13*
X188970000Y-87350000D03*
X186430000Y-84810000D03*
X186430000Y-87350000D03*
X183890000Y-84810000D03*
X183890000Y-87350000D03*
X181350000Y-84810000D03*
X181350000Y-87350000D03*
%TD*%
D12*
%TO.C,J9*%
X176200000Y-94600000D03*
D13*
X176200000Y-92060000D03*
X178740000Y-94600000D03*
X178740000Y-92060000D03*
X181280000Y-94600000D03*
X181280000Y-92060000D03*
X183820000Y-94600000D03*
X183820000Y-92060000D03*
X186360000Y-94600000D03*
X186360000Y-92060000D03*
X188900000Y-94600000D03*
X188900000Y-92060000D03*
%TD*%
D20*
%TO.C,REF\u002A\u002A*%
X89580000Y-136520000D03*
%TD*%
D22*
%TO.C,R8*%
X126238000Y-77140000D03*
D23*
X121158000Y-77140000D03*
%TD*%
D21*
%TO.C,RN1*%
X167820000Y-75850000D03*
D15*
X165280000Y-75850000D03*
X162740000Y-75850000D03*
X160200000Y-75850000D03*
X157660000Y-75850000D03*
X155120000Y-75850000D03*
X152580000Y-75850000D03*
%TD*%
D12*
%TO.C,J10*%
X181320000Y-79150000D03*
D13*
X181320000Y-76610000D03*
X183860000Y-79150000D03*
X183860000Y-76610000D03*
X186400000Y-79150000D03*
X186400000Y-76610000D03*
X188940000Y-79150000D03*
X188940000Y-76610000D03*
%TD*%
D12*
%TO.C,J5*%
X189040000Y-99130000D03*
D13*
X189040000Y-101670000D03*
X186500000Y-99130000D03*
X186500000Y-101670000D03*
X183960000Y-99130000D03*
X183960000Y-101670000D03*
X181420000Y-99130000D03*
X181420000Y-101670000D03*
%TD*%
D19*
%TO.C,U3*%
X165755000Y-118455000D03*
X168295000Y-118455000D03*
X165755000Y-115915000D03*
X168295000Y-115915000D03*
X165765000Y-113375000D03*
X168295000Y-113375000D03*
X165755000Y-110835000D03*
X168295000Y-110835000D03*
X165755000Y-108295000D03*
X168295000Y-108295000D03*
X165755000Y-105755000D03*
X168295000Y-105755000D03*
X165755000Y-103215000D03*
X168295000Y-103215000D03*
X165755000Y-100675000D03*
X168295000Y-100675000D03*
X165755000Y-98135000D03*
X168295000Y-98135000D03*
X165765000Y-95595000D03*
X168215000Y-95595000D03*
X165765000Y-93055000D03*
X168295000Y-93055000D03*
X165755000Y-90515000D03*
X168295000Y-90515000D03*
X165755000Y-87975000D03*
X168295000Y-87975000D03*
X165755000Y-85435000D03*
X168295000Y-85435000D03*
X165755000Y-82895000D03*
X168295000Y-82895000D03*
X165755000Y-80355000D03*
X168295000Y-80355000D03*
X132735000Y-98135000D03*
X135275000Y-98135000D03*
X132735000Y-95595000D03*
X135275000Y-95595000D03*
X132735000Y-93055000D03*
X135275000Y-93055000D03*
X132735000Y-90515000D03*
X135275000Y-90515000D03*
X132735000Y-87975000D03*
X135275000Y-87975000D03*
X132735000Y-85435000D03*
X135275000Y-85435000D03*
X132735000Y-82895000D03*
X135275000Y-82895000D03*
X132735000Y-80355000D03*
X135275000Y-80355000D03*
X137825000Y-80355000D03*
X137815000Y-82895000D03*
X140355000Y-80355000D03*
X140355000Y-82895000D03*
X142895000Y-80355000D03*
X142895000Y-82895000D03*
X168295000Y-128615000D03*
X165755000Y-128615000D03*
X165755000Y-131155000D03*
X168295000Y-131155000D03*
X165755000Y-126075000D03*
X168295000Y-126075000D03*
X168295000Y-123535000D03*
X165755000Y-123535000D03*
D24*
X146805000Y-81425000D03*
X140515000Y-118455000D03*
D19*
X165755000Y-120995000D03*
X168295000Y-120995000D03*
X132735000Y-118455000D03*
X135275000Y-118455000D03*
X132735000Y-115915000D03*
X135275000Y-115915000D03*
X132735000Y-113375000D03*
X135275000Y-113375000D03*
X132735000Y-110835000D03*
X135275000Y-110835000D03*
X132735000Y-108295000D03*
X135275000Y-108295000D03*
X132735000Y-105755000D03*
X135275000Y-105755000D03*
X132735000Y-103215000D03*
X135275000Y-103215000D03*
X132735000Y-100675000D03*
X135275000Y-100675000D03*
%TD*%
D20*
%TO.C,REF\u002A\u002A*%
X196510000Y-63490000D03*
%TD*%
D10*
%TO.C,J12*%
X145625000Y-68170000D03*
D11*
X140545000Y-68170000D03*
%TD*%
M02*
