%TF.GenerationSoftware,KiCad,Pcbnew,(6.0.0-0)*%
%TF.CreationDate,2022-02-03T16:23:35-05:00*%
%TF.ProjectId,LED_Controller_Without_Level_Shifter,4c45445f-436f-46e7-9472-6f6c6c65725f,1.0*%
%TF.SameCoordinates,Original*%
%TF.FileFunction,Copper,L3,Inr*%
%TF.FilePolarity,Positive*%
%FSLAX46Y46*%
G04 Gerber Fmt 4.6, Leading zero omitted, Abs format (unit mm)*
G04 Created by KiCad (PCBNEW (6.0.0-0)) date 2022-02-03 16:23:35*
%MOMM*%
%LPD*%
G01*
G04 APERTURE LIST*
%TA.AperFunction,ComponentPad*%
%ADD10R,2.500000X2.500000*%
%TD*%
%TA.AperFunction,ComponentPad*%
%ADD11C,2.500000*%
%TD*%
%TA.AperFunction,ComponentPad*%
%ADD12R,1.700000X1.700000*%
%TD*%
%TA.AperFunction,ComponentPad*%
%ADD13O,1.700000X1.700000*%
%TD*%
%TA.AperFunction,ComponentPad*%
%ADD14C,1.400000*%
%TD*%
%TA.AperFunction,ComponentPad*%
%ADD15O,1.400000X1.400000*%
%TD*%
%TA.AperFunction,ComponentPad*%
%ADD16R,1.600000X1.600000*%
%TD*%
%TA.AperFunction,ComponentPad*%
%ADD17O,1.600000X1.600000*%
%TD*%
%TA.AperFunction,ComponentPad*%
%ADD18C,1.524000*%
%TD*%
%TA.AperFunction,ComponentPad*%
%ADD19C,3.100000*%
%TD*%
%TA.AperFunction,ComponentPad*%
%ADD20C,5.000000*%
%TD*%
%TA.AperFunction,Conductor*%
%ADD21C,0.250000*%
%TD*%
G04 APERTURE END LIST*
D10*
%TO.N,GND*%
%TO.C,J1*%
X93790000Y-70645000D03*
D11*
%TO.N,+12V*%
X93790000Y-75725000D03*
%TD*%
D10*
%TO.N,GND*%
%TO.C,J2*%
X110180000Y-68280000D03*
D11*
%TO.N,+5V*%
X105100000Y-68280000D03*
%TD*%
D10*
%TO.N,GND*%
%TO.C,J3*%
X133045000Y-68280000D03*
D11*
%TO.N,+5V*%
X127965000Y-68280000D03*
%TD*%
D10*
%TO.N,GND*%
%TO.C,J4*%
X121615000Y-68254000D03*
D11*
%TO.N,+5V*%
X116535000Y-68254000D03*
%TD*%
D12*
%TO.N,GND*%
%TO.C,J5*%
X188930000Y-99250000D03*
D13*
X188930000Y-101790000D03*
%TO.N,+5V*%
X186390000Y-99250000D03*
X186390000Y-101790000D03*
%TO.N,LDP_CLOCK*%
X183850000Y-99250000D03*
%TO.N,MAINT_CLOCK*%
X183850000Y-101790000D03*
%TO.N,/H-R1_LD*%
X181310000Y-99250000D03*
%TO.N,/H-R2-MD*%
X181310000Y-101790000D03*
%TD*%
D12*
%TO.N,GND*%
%TO.C,J6*%
X189000000Y-108380000D03*
D13*
X189000000Y-110920000D03*
%TO.N,+5V*%
X186460000Y-108380000D03*
X186460000Y-110920000D03*
%TO.N,CS1_CLOCK*%
X183920000Y-108380000D03*
%TO.N,VU1_CLOCK*%
X183920000Y-110920000D03*
%TO.N,/H-R3_C1D*%
X181380000Y-108380000D03*
%TO.N,/H-R4_V1D*%
X181380000Y-110920000D03*
%TO.N,CS2_CLOCK*%
X178840000Y-108380000D03*
%TO.N,VU2_CLOCK*%
X178840000Y-110920000D03*
%TO.N,/H-R5_C2D*%
X176300000Y-108380000D03*
%TO.N,/H-R6_V2D*%
X176300000Y-110920000D03*
%TD*%
D12*
%TO.N,GND*%
%TO.C,J7*%
X188976000Y-117334000D03*
D13*
%TO.N,+5V*%
X186436000Y-117334000D03*
%TO.N,DP_LOAD*%
X183896000Y-117334000D03*
%TO.N,DP_CLOCK*%
X181356000Y-117334000D03*
%TO.N,DP_DATA_IN*%
X178816000Y-117334000D03*
%TD*%
D12*
%TO.N,GND*%
%TO.C,J8*%
X188976000Y-130810000D03*
D13*
%TO.N,+5V*%
X186436000Y-130810000D03*
%TO.N,VU_STROBE*%
X183896000Y-130810000D03*
%TO.N,VU_RESET*%
X181356000Y-130810000D03*
%TO.N,SPECTRUM_LEFT*%
X178816000Y-130810000D03*
%TO.N,SPECTRUM_RIGHT*%
X176276000Y-130810000D03*
%TD*%
D12*
%TO.N,+5V*%
%TO.C,J9*%
X181320000Y-79145000D03*
D13*
X181320000Y-76605000D03*
%TO.N,GND*%
X183860000Y-79145000D03*
X183860000Y-76605000D03*
%TO.N,SCL*%
X186400000Y-79145000D03*
X186400000Y-76605000D03*
%TO.N,SDA*%
X188940000Y-79145000D03*
X188940000Y-76605000D03*
%TD*%
D12*
%TO.N,GND*%
%TO.C,J10*%
X188920000Y-84885000D03*
D13*
X188920000Y-87425000D03*
%TO.N,+5V*%
X186380000Y-84885000D03*
X186380000Y-87425000D03*
%TO.N,TX1*%
X183840000Y-84885000D03*
%TO.N,TX0*%
X183840000Y-87425000D03*
%TO.N,RX1*%
X181300000Y-84885000D03*
%TO.N,RX0*%
X181300000Y-87425000D03*
%TD*%
D12*
%TO.N,GND*%
%TO.C,J11*%
X188951000Y-93751000D03*
D13*
%TO.N,OE*%
X186411000Y-93751000D03*
%TO.N,SCL*%
X183871000Y-93751000D03*
%TO.N,SDA*%
X181331000Y-93751000D03*
%TO.N,+5V*%
X178791000Y-93751000D03*
X176251000Y-93751000D03*
%TD*%
D14*
%TO.N,/H-R2-MD*%
%TO.C,R2*%
X155290000Y-102822000D03*
D15*
%TO.N,MAINT_DATA*%
X150210000Y-102822000D03*
%TD*%
D14*
%TO.N,/H-R3_C1D*%
%TO.C,R3*%
X155290000Y-100534000D03*
D15*
%TO.N,CS1_DATA*%
X150210000Y-100534000D03*
%TD*%
D14*
%TO.N,CS2_DATA*%
%TO.C,R4*%
X150210000Y-98246000D03*
D15*
%TO.N,/H-R5_C2D*%
X155290000Y-98246000D03*
%TD*%
D14*
%TO.N,VU1_DATA*%
%TO.C,R5*%
X150210000Y-95958000D03*
D15*
%TO.N,/H-R4_V1D*%
X155290000Y-95958000D03*
%TD*%
D14*
%TO.N,VU2_DATA*%
%TO.C,R6*%
X150210000Y-93670000D03*
D15*
%TO.N,/H-R6_V2D*%
X155290000Y-93670000D03*
%TD*%
D16*
%TO.N,GND*%
%TO.C,RN1*%
X163068000Y-76454000D03*
D17*
%TO.N,JUMPER1*%
X160528000Y-76454000D03*
%TO.N,JUMPER2*%
X157988000Y-76454000D03*
%TO.N,JUMPER3*%
X155448000Y-76454000D03*
%TO.N,JUMPER4*%
X152908000Y-76454000D03*
%TO.N,JUMPER5*%
X150368000Y-76454000D03*
%TD*%
D18*
%TO.N,unconnected-(U1-Pad0)*%
%TO.C,U1*%
X90780000Y-87130000D03*
%TO.N,+12V*%
X90780000Y-89670000D03*
%TO.N,GND*%
X90780000Y-92210000D03*
%TO.N,N/C*%
X90780000Y-94750000D03*
%TO.N,GND*%
X90780000Y-97290000D03*
D19*
%TO.N,+5V*%
X91610000Y-83600000D03*
%TO.N,N/C*%
X107838800Y-97361200D03*
%TD*%
D18*
%TO.N,unconnected-(U2-Pad0)*%
%TO.C,U2*%
X105015400Y-130406600D03*
%TO.N,unconnected-(U2-Pad1)*%
X120205400Y-127866600D03*
%TO.N,unconnected-(U2-Pad2)*%
X102475400Y-130406600D03*
%TO.N,unconnected-(U2-Pad3)*%
X117715400Y-127866600D03*
%TO.N,unconnected-(U2-Pad4)*%
X107555400Y-130406600D03*
%TO.N,unconnected-(U2-Pad5)*%
X105015400Y-105000600D03*
%TO.N,unconnected-(U2-Pad18)*%
X112635400Y-105000600D03*
%TO.N,unconnected-(U2-Pad19)*%
X110095400Y-105000600D03*
%TO.N,unconnected-(U2-Pad21)*%
X112635400Y-127866600D03*
%TO.N,unconnected-(U2-Pad22)*%
X115175400Y-127866600D03*
%TO.N,unconnected-(U2-Pad23)*%
X107555400Y-105000600D03*
%TO.N,unconnected-(U2-Pad25)*%
X107555400Y-127866600D03*
%TO.N,unconnected-(U2-Pad26)*%
X115175400Y-105000600D03*
%TO.N,unconnected-(U2-Pad27)*%
X110095400Y-127866600D03*
%TO.N,unconnected-(U2-Pad32)*%
X112635400Y-130406600D03*
%TO.N,unconnected-(U2-Pad33)*%
X110095400Y-102460600D03*
%TO.N,unconnected-(U2-Pad34)*%
X107555400Y-102460600D03*
%TO.N,unconnected-(U2-Pad35)*%
X112635400Y-102460600D03*
%TO.N,unconnected-(U2-Pad39)*%
X115175400Y-102460600D03*
%TO.N,GND*%
X105015400Y-127866600D03*
X120255400Y-130406600D03*
X120255400Y-102460600D03*
%TO.N,+5V*%
X102475400Y-127866600D03*
%TO.N,3.3V*%
X102475400Y-105000600D03*
%TO.N,unconnected-(U2-Pad80)*%
X99935400Y-127866600D03*
%TO.N,unconnected-(U2-Pad81)*%
X97395400Y-127866600D03*
%TO.N,unconnected-(U2-Pad82)*%
X110095400Y-130406600D03*
%TO.N,unconnected-(U2-Pad83)*%
X99935400Y-130406600D03*
%TO.N,unconnected-(U2-Pad84)*%
X97395400Y-130406600D03*
%TO.N,unconnected-(U2-Pad85)*%
X120255400Y-105000600D03*
%TO.N,unconnected-(U2-Pad86)*%
X117715400Y-105000600D03*
%TO.N,unconnected-(U2-Pad87)*%
X99935400Y-105000600D03*
%TO.N,unconnected-(U2-Pad88)*%
X97395400Y-105000600D03*
%TO.N,unconnected-(U2-Pad89)*%
X117715400Y-102460600D03*
%TO.N,unconnected-(U2-Pad90)*%
X105015400Y-102460600D03*
%TO.N,unconnected-(U2-Pad91)*%
X102475400Y-102460600D03*
%TO.N,unconnected-(U2-Pad92)*%
X99935400Y-102460600D03*
%TO.N,unconnected-(U2-Pad93)*%
X97395400Y-102460600D03*
%TO.N,ESP_LOGIC_RX*%
X115175400Y-130406600D03*
%TO.N,ESP_LOGIC_TX*%
X117715400Y-130406600D03*
%TD*%
D14*
%TO.N,/H-R1_LD*%
%TO.C,R1*%
X155290000Y-105110000D03*
D15*
%TO.N,LDP_DATA*%
X150210000Y-105110000D03*
%TD*%
D18*
%TO.N,JUMPER5*%
%TO.C,SW1*%
X125476000Y-89091000D03*
%TO.N,JUMPER4*%
X122936000Y-89091000D03*
%TO.N,JUMPER3*%
X120396000Y-89091000D03*
%TO.N,JUMPER2*%
X117856000Y-89091000D03*
%TO.N,JUMPER1*%
X115316000Y-89091000D03*
%TO.N,+5V*%
X115316000Y-81089000D03*
X117856000Y-81089000D03*
X120396000Y-81089000D03*
X122936000Y-81089000D03*
X125476000Y-81089000D03*
%TD*%
%TO.N,GND*%
%TO.C,SW2*%
X188820000Y-71020000D03*
%TO.N,RESET*%
X188820000Y-66520000D03*
%TO.N,GND*%
X195320000Y-71020000D03*
%TO.N,RESET*%
X195320000Y-66520000D03*
%TD*%
%TO.N,TX0*%
%TO.C,U4*%
X165710000Y-119470000D03*
%TO.N,RX0*%
X168250000Y-119470000D03*
%TO.N,OE*%
X165710000Y-116930000D03*
%TO.N,DP_DATA_IN*%
X168250000Y-116930000D03*
%TO.N,DP_CLOCK*%
X165710000Y-114390000D03*
%TO.N,DP_LOAD*%
X168250000Y-114390000D03*
%TO.N,unconnected-(U4-Pad6)*%
X165710000Y-111850000D03*
%TO.N,unconnected-(U4-Pad7)*%
X168250000Y-111850000D03*
%TO.N,unconnected-(U4-Pad8)*%
X165710000Y-109310000D03*
%TO.N,unconnected-(U4-Pad9)*%
X168250000Y-109310000D03*
%TO.N,unconnected-(U4-Pad10)*%
X165710000Y-106770000D03*
%TO.N,unconnected-(U4-Pad11)*%
X168250000Y-106770000D03*
%TO.N,VU_STROBE*%
X165710000Y-104230000D03*
%TO.N,VU_RESET*%
X168250000Y-104230000D03*
%TO.N,unconnected-(U4-Pad14)*%
X165710000Y-101690000D03*
%TO.N,unconnected-(U4-Pad15)*%
X168250000Y-101690000D03*
%TO.N,LOGIC_2560_RX*%
X165710000Y-99150000D03*
%TO.N,LOGIC_2560_TX*%
X168250000Y-99150000D03*
%TO.N,TX1*%
X165710000Y-96610000D03*
%TO.N,RX1*%
X168250000Y-96610000D03*
%TO.N,SDA*%
X165710000Y-94070000D03*
%TO.N,SCL*%
X168250000Y-94070000D03*
%TO.N,unconnected-(U4-Pad22)*%
X165710000Y-91530000D03*
%TO.N,unconnected-(U4-Pad23)*%
X168250000Y-91530000D03*
%TO.N,unconnected-(U4-Pad24)*%
X165710000Y-88990000D03*
%TO.N,N/C*%
X168250000Y-129630000D03*
X168250000Y-127090000D03*
D20*
X140020000Y-117490000D03*
X154300000Y-82720000D03*
D18*
%TO.N,unconnected-(U4-Pad25)*%
X168250000Y-88990000D03*
%TO.N,unconnected-(U4-Pad26)*%
X165710000Y-86450000D03*
%TO.N,unconnected-(U4-Pad27)*%
X168250000Y-86450000D03*
%TO.N,unconnected-(U4-Pad28)*%
X165710000Y-83910000D03*
%TO.N,unconnected-(U4-Pad29)*%
X168250000Y-83964000D03*
%TO.N,MAINT_DATA*%
X165710000Y-81370000D03*
%TO.N,unconnected-(U4-Pad31)*%
X168250000Y-81370000D03*
%TO.N,MAINT_CLOCK*%
X132760000Y-99150000D03*
%TO.N,unconnected-(U4-Pad33)*%
X135300000Y-99150000D03*
%TO.N,LDP_DATA*%
X132760000Y-96610000D03*
%TO.N,unconnected-(U4-Pad35)*%
X135300000Y-96610000D03*
%TO.N,LDP_CLOCK*%
X132760000Y-94070000D03*
%TO.N,unconnected-(U4-Pad37)*%
X135300000Y-94070000D03*
%TO.N,CS1_DATA*%
X132760000Y-91530000D03*
%TO.N,unconnected-(U4-Pad39)*%
X135300000Y-91530000D03*
%TO.N,CS1_CLOCK*%
X132760000Y-88990000D03*
%TO.N,unconnected-(U4-Pad41)*%
X135300000Y-88990000D03*
%TO.N,CS2_DATA*%
X132760000Y-86450000D03*
%TO.N,unconnected-(U4-Pad43)*%
X135300000Y-86450000D03*
%TO.N,CS2_CLOCK*%
X132760000Y-83910000D03*
%TO.N,JUMPER5*%
X135300000Y-83910000D03*
%TO.N,VU1_DATA*%
X132760000Y-81370000D03*
%TO.N,JUMPER4*%
X135300000Y-81370000D03*
%TO.N,VU1_CLOCK*%
X137840000Y-81370000D03*
%TO.N,JUMPER3*%
X137840000Y-83910000D03*
%TO.N,VU2_DATA*%
X140380000Y-81370000D03*
%TO.N,JUMPER2*%
X140380000Y-83910000D03*
%TO.N,VU2_CLOCK*%
X142920000Y-81459000D03*
%TO.N,JUMPER1*%
X142920000Y-83910000D03*
%TO.N,unconnected-(U4-Pad60)*%
X143710000Y-129630000D03*
%TO.N,GND*%
X165710000Y-127090000D03*
%TO.N,+5V*%
X165710000Y-129630000D03*
%TO.N,unconnected-(U4-Pad71)*%
X165710000Y-124550000D03*
%TO.N,unconnected-(U4-Pad72)*%
X168250000Y-124550000D03*
%TO.N,unconnected-(U4-Pad100)*%
X153870000Y-129630000D03*
%TO.N,unconnected-(U4-Pad101)*%
X151330000Y-129630000D03*
%TO.N,unconnected-(U4-Pad102)*%
X148790000Y-129630000D03*
%TO.N,unconnected-(U4-Pad103)*%
X146250000Y-129630000D03*
%TO.N,unconnected-(U4-Pad104)*%
X165710000Y-122010000D03*
%TO.N,RESET*%
X168250000Y-122010000D03*
%TO.N,SPECTRUM_LEFT*%
X132760000Y-119470000D03*
%TO.N,SPECTRUM_RIGHT*%
X135300000Y-119470000D03*
%TO.N,TRIM1*%
X132760000Y-116930000D03*
%TO.N,TRIM2*%
X135300000Y-116930000D03*
%TO.N,TRIM3*%
X132760000Y-114390000D03*
%TO.N,TRIM4*%
X135300000Y-114390000D03*
%TO.N,TRIM5*%
X132760000Y-111850000D03*
%TO.N,BATTERY_LEVEL*%
X135300000Y-111850000D03*
%TO.N,EXT_MIC*%
X132760000Y-109310000D03*
%TO.N,unconnected-(U4-Pad209)*%
X135300000Y-109310000D03*
%TO.N,unconnected-(U4-Pad210)*%
X132760000Y-106770000D03*
%TO.N,unconnected-(U4-Pad211)*%
X135300000Y-106770000D03*
%TO.N,unconnected-(U4-Pad212)*%
X132760000Y-104230000D03*
%TO.N,unconnected-(U4-Pad213)*%
X135300000Y-104230000D03*
%TO.N,unconnected-(U4-Pad214)*%
X132760000Y-101690000D03*
%TO.N,unconnected-(U4-Pad215)*%
X135300000Y-101690000D03*
%TD*%
%TO.N,GND*%
%TO.C,RV1*%
X156140000Y-67935000D03*
%TO.N,TRIM1*%
X153600000Y-65325000D03*
%TO.N,+5V*%
X151060000Y-67935000D03*
%TD*%
%TO.N,GND*%
%TO.C,RV2*%
X171015000Y-67935000D03*
%TO.N,TRIM3*%
X168475000Y-65325000D03*
%TO.N,+5V*%
X165935000Y-67935000D03*
%TD*%
%TO.N,GND*%
%TO.C,RV3*%
X185890000Y-67935000D03*
%TO.N,TRIM5*%
X183350000Y-65325000D03*
%TO.N,+5V*%
X180810000Y-67935000D03*
%TD*%
%TO.N,GND*%
%TO.C,RV4*%
X163577500Y-67935000D03*
%TO.N,TRIM2*%
X161037500Y-65325000D03*
%TO.N,+5V*%
X158497500Y-67935000D03*
%TD*%
%TO.N,GND*%
%TO.C,RV5*%
X178452500Y-67935000D03*
%TO.N,TRIM4*%
X175912500Y-65325000D03*
%TO.N,+5V*%
X173372500Y-67935000D03*
%TD*%
D12*
%TO.N,ESP_LOGIC_RX*%
%TO.C,J13*%
X118545000Y-96315000D03*
D13*
%TO.N,ESP_LOGIC_TX*%
X118545000Y-93775000D03*
%TO.N,LOGIC_2560_RX*%
X121085000Y-96315000D03*
%TO.N,LOGIC_2560_TX*%
X121085000Y-93775000D03*
%TD*%
D12*
%TO.N,GND*%
%TO.C,J13*%
X188975000Y-123340000D03*
D13*
%TO.N,+5V*%
X186435000Y-123340000D03*
%TO.N,EXT_MIC*%
X183895000Y-123340000D03*
%TD*%
D14*
%TO.N,BATTERY_LEVEL*%
%TO.C,R7*%
X106172000Y-76962000D03*
D15*
%TO.N,POS*%
X111252000Y-76962000D03*
%TD*%
D14*
%TO.N,NEG*%
%TO.C,R8*%
X126238000Y-77140000D03*
D15*
%TO.N,BATTERY_LEVEL*%
X121158000Y-77140000D03*
%TD*%
D10*
%TO.N,POS*%
%TO.C,J12*%
X145625000Y-68170000D03*
D11*
%TO.N,NEG*%
X140545000Y-68170000D03*
%TD*%
D21*
%TO.N,MAINT_CLOCK*%
X163606000Y-113060000D02*
X174170000Y-113060000D01*
X134213489Y-100603489D02*
X139853489Y-100603489D01*
X194360000Y-96520000D02*
X184918990Y-96520000D01*
X174920000Y-113810000D02*
X193780000Y-113810000D01*
X184918990Y-96520000D02*
X182610000Y-98828990D01*
X195834000Y-97994000D02*
X194360000Y-96520000D01*
X193780000Y-113810000D02*
X195834000Y-111756000D01*
X132760000Y-99150000D02*
X134213489Y-100603489D01*
X182610000Y-98828990D02*
X182610000Y-100550000D01*
X174170000Y-113060000D02*
X174920000Y-113810000D01*
X195834000Y-111756000D02*
X195834000Y-97994000D01*
X159436000Y-108890000D02*
X163606000Y-113060000D01*
X148140000Y-108890000D02*
X159436000Y-108890000D01*
X139853489Y-100603489D02*
X148140000Y-108890000D01*
X182610000Y-100550000D02*
X183850000Y-101790000D01*
%TO.N,LDP_CLOCK*%
X132760000Y-94070000D02*
X133846511Y-95156511D01*
X136896511Y-95156511D02*
X148930000Y-107190000D01*
X133846511Y-95156511D02*
X136896511Y-95156511D01*
X172410000Y-110530000D02*
X175140000Y-113260000D01*
X175140000Y-113260000D02*
X193490000Y-113260000D01*
X162765718Y-110530000D02*
X172410000Y-110530000D01*
X194390000Y-97470000D02*
X185630000Y-97470000D01*
X159425718Y-107190000D02*
X162765718Y-110530000D01*
X148930000Y-107190000D02*
X159425718Y-107190000D01*
X193490000Y-113260000D02*
X195130000Y-111620000D01*
X185630000Y-97470000D02*
X183850000Y-99250000D01*
X195130000Y-111620000D02*
X195130000Y-98210000D01*
X195130000Y-98210000D02*
X194390000Y-97470000D01*
%TO.N,VU1_CLOCK*%
X146803489Y-80283489D02*
X154190000Y-87670000D01*
X182630000Y-109630000D02*
X183920000Y-110920000D01*
X181373489Y-107205489D02*
X181866499Y-107205489D01*
X181866499Y-107205489D02*
X182630000Y-107968990D01*
X173228000Y-91694000D02*
X173228000Y-99060000D01*
X182630000Y-107968990D02*
X182630000Y-109630000D01*
X169204000Y-87670000D02*
X173228000Y-91694000D01*
X138926511Y-80283489D02*
X146803489Y-80283489D01*
X173228000Y-99060000D02*
X181373489Y-107205489D01*
X154190000Y-87670000D02*
X169204000Y-87670000D01*
X137840000Y-81370000D02*
X138926511Y-80283489D01*
%TO.N,VU2_CLOCK*%
X147009000Y-81459000D02*
X155730000Y-90180000D01*
X170300000Y-90180000D02*
X172212000Y-92092000D01*
X172212000Y-92092000D02*
X172212000Y-99314000D01*
X180120000Y-109640000D02*
X178840000Y-110920000D01*
X172212000Y-99314000D02*
X180120000Y-107222000D01*
X180120000Y-107222000D02*
X180120000Y-109640000D01*
X142920000Y-81459000D02*
X147009000Y-81459000D01*
X155730000Y-90180000D02*
X170300000Y-90180000D01*
%TO.N,CS2_CLOCK*%
X134050000Y-85200000D02*
X145800000Y-85200000D01*
X145800000Y-85200000D02*
X153216511Y-92616511D01*
X153216511Y-92616511D02*
X160746511Y-92616511D01*
X171196000Y-99568000D02*
X178840000Y-107212000D01*
X163470000Y-95340000D02*
X170270000Y-95340000D01*
X132760000Y-83910000D02*
X134050000Y-85200000D01*
X160746511Y-92616511D02*
X163470000Y-95340000D01*
X170270000Y-95340000D02*
X171196000Y-96266000D01*
X171196000Y-96266000D02*
X171196000Y-99568000D01*
X178840000Y-107212000D02*
X178840000Y-108380000D01*
%TO.N,CS1_CLOCK*%
X133223440Y-79370000D02*
X157330000Y-79370000D01*
X174470000Y-98850000D02*
X183920000Y-108300000D01*
X183920000Y-108300000D02*
X183920000Y-108380000D01*
X130840000Y-81753440D02*
X133223440Y-79370000D01*
X132760000Y-88990000D02*
X130840000Y-87070000D01*
X174470000Y-90904000D02*
X174470000Y-98850000D01*
X130840000Y-87070000D02*
X130840000Y-81753440D01*
X157330000Y-79370000D02*
X163130000Y-85170000D01*
X170434000Y-86784000D02*
X170434000Y-86868000D01*
X170434000Y-86868000D02*
X174470000Y-90904000D01*
X163130000Y-85170000D02*
X168820000Y-85170000D01*
X168820000Y-85170000D02*
X170434000Y-86784000D01*
%TD*%
M02*
