M48
; DRILL file {KiCad (6.0.0-0)} date Wednesday, February 23, 2022 at 10:17:18 AM
; FORMAT={-:-/ absolute / inch / decimal}
; #@! TF.CreationDate,2022-02-23T10:17:18-05:00
; #@! TF.GenerationSoftware,Kicad,Pcbnew,(6.0.0-0)
; #@! TF.FileFunction,Plated,1,4,PTH
FMAT,2
INCH
; #@! TA.AperFunction,Plated,PTH,ComponentDrill
T1C0.0276
; #@! TA.AperFunction,Plated,PTH,ComponentDrill
T2C0.0300
; #@! TA.AperFunction,Plated,PTH,ComponentDrill
T3C0.0315
; #@! TA.AperFunction,Plated,PTH,ComponentDrill
T4C0.0394
; #@! TA.AperFunction,Plated,PTH,ComponentDrill
T5C0.0512
; #@! TA.AperFunction,Plated,PTH,ComponentDrill
T6C0.1260
%
G90
G05
T1
X4.18Y-3.03
X4.38Y-3.03
X4.77Y-3.037
X4.97Y-3.037
X5.9138Y-3.6878
X5.9138Y-3.7779
X5.9138Y-3.868
X5.9138Y-3.958
X5.9138Y-4.0481
X5.9138Y-4.1382
X6.1138Y-3.6878
X6.1138Y-3.7779
X6.1138Y-3.868
X6.1138Y-3.958
X6.1138Y-4.0481
X6.1138Y-4.1382
T2
X3.574Y-3.4303
X3.574Y-3.5303
X3.574Y-3.6303
X3.574Y-3.7303
X3.574Y-3.8303
X3.8345Y-4.0339
X3.8345Y-4.1339
X3.8345Y-5.0341
X3.8345Y-5.1341
X3.9345Y-4.0339
X3.9345Y-4.1339
X3.9345Y-5.0341
X3.9345Y-5.1341
X4.0345Y-4.0339
X4.0345Y-4.1339
X4.0345Y-5.0341
X4.0345Y-5.1341
X4.1345Y-4.0339
X4.1345Y-4.1339
X4.1345Y-5.0341
X4.1345Y-5.1341
X4.2345Y-4.0339
X4.2345Y-4.1339
X4.2345Y-5.0341
X4.2345Y-5.1341
X4.3345Y-4.0339
X4.3345Y-4.1339
X4.3345Y-5.0341
X4.3345Y-5.1341
X4.4345Y-4.0339
X4.4345Y-4.1339
X4.4345Y-5.0341
X4.4345Y-5.1341
X4.5345Y-4.0339
X4.5345Y-4.1339
X4.5345Y-5.0341
X4.5345Y-5.1341
X4.54Y-3.1925
X4.54Y-3.5075
X4.6345Y-4.0339
X4.6345Y-4.1339
X4.6345Y-5.0341
X4.6345Y-5.1341
X4.64Y-3.1925
X4.64Y-3.5075
X4.7325Y-5.0341
X4.7345Y-4.0339
X4.7345Y-4.1339
X4.7345Y-5.1341
X4.74Y-3.1925
X4.74Y-3.5075
X4.84Y-3.1925
X4.84Y-3.5075
X4.94Y-3.1925
X4.94Y-3.5075
X5.2264Y-3.1642
X5.2264Y-3.2642
X5.2264Y-3.3642
X5.2264Y-3.4642
X5.2264Y-3.5642
X5.2264Y-3.6642
X5.2264Y-3.7642
X5.2264Y-3.8642
X5.2264Y-3.9642
X5.2264Y-4.0642
X5.2264Y-4.1642
X5.2264Y-4.2642
X5.2264Y-4.3642
X5.2264Y-4.4642
X5.2264Y-4.5642
X5.2264Y-4.6642
X5.3264Y-3.1642
X5.3264Y-3.2642
X5.3264Y-3.3642
X5.3264Y-3.4642
X5.3264Y-3.5642
X5.3264Y-3.6642
X5.3264Y-3.7642
X5.3264Y-3.8642
X5.3264Y-3.9642
X5.3264Y-4.0642
X5.3264Y-4.1642
X5.3264Y-4.2642
X5.3264Y-4.3642
X5.3264Y-4.4642
X5.3264Y-4.5642
X5.3264Y-4.6642
X5.4264Y-3.2642
X5.4268Y-3.1642
X5.5264Y-3.1642
X5.5264Y-3.2642
X5.6264Y-3.1642
X5.6264Y-3.2642
X5.9472Y-2.6746
X6.0472Y-2.5719
X6.1472Y-2.6746
X6.2401Y-2.6746
X6.3401Y-2.5719
X6.4401Y-2.6746
X6.5264Y-3.1642
X6.5264Y-3.2642
X6.5264Y-3.3642
X6.5264Y-3.4642
X6.5264Y-3.5642
X6.5264Y-3.8642
X6.5264Y-3.9642
X6.5264Y-4.0642
X6.5264Y-4.1642
X6.5264Y-4.2642
X6.5264Y-4.3642
X6.5264Y-4.5642
X6.5264Y-4.6642
X6.5264Y-4.7642
X6.5264Y-4.8642
X6.5264Y-4.9642
X6.5264Y-5.0642
X6.5264Y-5.1642
X6.5268Y-3.6642
X6.5268Y-3.7642
X6.5268Y-4.4642
X6.5329Y-2.6746
X6.6232Y-3.7642
X6.6264Y-3.1642
X6.6264Y-3.2642
X6.6264Y-3.3642
X6.6264Y-3.4642
X6.6264Y-3.5642
X6.6264Y-3.6642
X6.6264Y-3.8642
X6.6264Y-3.9642
X6.6264Y-4.0642
X6.6264Y-4.1642
X6.6264Y-4.2642
X6.6264Y-4.3642
X6.6264Y-4.4642
X6.6264Y-4.5642
X6.6264Y-4.6642
X6.6264Y-4.7642
X6.6264Y-4.8642
X6.6264Y-4.9642
X6.6264Y-5.0642
X6.6264Y-5.1642
X6.6329Y-2.5719
X6.7329Y-2.6746
X6.8257Y-2.6746
X6.9257Y-2.5719
X7.0257Y-2.6746
X7.1185Y-2.6746
X7.2185Y-2.5719
X7.3185Y-2.6746
X7.4339Y-2.6189
X7.4339Y-2.7961
X7.6898Y-2.6189
X7.6898Y-2.7961
T3
X5.92Y-3.01
X6.02Y-3.01
X6.12Y-3.01
X6.22Y-3.01
X6.32Y-3.01
X6.42Y-3.01
T4
X4.6671Y-3.6919
X4.6671Y-3.7919
X4.7671Y-3.6919
X4.7671Y-3.7919
X6.939Y-3.691
X6.94Y-5.15
X6.9409Y-4.2669
X6.9409Y-4.3669
X7.039Y-3.691
X7.04Y-4.6194
X7.04Y-5.15
X7.0409Y-4.2669
X7.0409Y-4.3669
X7.1378Y-3.3419
X7.1378Y-3.4419
X7.1382Y-3.9075
X7.1382Y-4.0075
X7.1386Y-3.0159
X7.1386Y-3.1159
X7.139Y-3.691
X7.14Y-4.6194
X7.14Y-5.15
X7.1409Y-4.2669
X7.1409Y-4.3669
X7.2378Y-3.3419
X7.2378Y-3.4419
X7.2382Y-3.9075
X7.2382Y-4.0075
X7.2386Y-3.0159
X7.2386Y-3.1159
X7.239Y-3.691
X7.24Y-4.8559
X7.24Y-4.6194
X7.24Y-5.15
X7.2409Y-4.2669
X7.2409Y-4.3669
X7.3378Y-3.3419
X7.3378Y-3.4419
X7.3382Y-3.9075
X7.3382Y-4.0075
X7.3386Y-3.0159
X7.3386Y-3.1159
X7.339Y-3.691
X7.34Y-4.8559
X7.34Y-4.6194
X7.34Y-5.15
X7.3409Y-4.2669
X7.3409Y-4.3669
X7.4378Y-3.3419
X7.4378Y-3.4419
X7.4382Y-3.9075
X7.4382Y-4.0075
X7.4386Y-3.0159
X7.4386Y-3.1159
X7.439Y-3.691
X7.44Y-4.8559
X7.44Y-4.6194
X7.44Y-5.15
X7.4409Y-4.2669
X7.4409Y-4.3669
T5
X3.6925Y-2.7813
X3.6925Y-2.9813
X4.1378Y-2.6882
X4.3378Y-2.6882
X4.588Y-2.6872
X4.788Y-2.6872
X5.038Y-2.6882
X5.238Y-2.6882
X5.5333Y-2.6839
X5.7333Y-2.6839
T6
X3.6067Y-3.2913
X4.2456Y-3.8331
X5.5327Y-4.6642
X5.7803Y-3.2063
T0
M30
